<?xml version="1.0" encoding="utf-8"?>
<!-- Generator: Adobe Illustrator 25.2.3, SVG Export Plug-In . SVG Version: 6.00 Build 0)  -->
<svg version="1.1" id="Layer_1" xmlns="http://www.w3.org/2000/svg" xmlns:xlink="http://www.w3.org/1999/xlink" x="0px" y="0px"
	 width="195.3px" height="159.2px" viewBox="0 0 195.3 159.2" style="enable-background:new 0 0 195.3 159.2;" xml:space="preserve"
	>
<style type="text/css">
	.st0{fill:#FFFFFF;}
	.st1{fill:none;stroke:#005092;stroke-width:2.079;stroke-miterlimit:22.926;}
	.st2{fill:#005092;}
	.st3{fill:#00569D;}
</style>
<path class="st0" d="M72.3,97.3c-13.1-9.6-20.8-24.9-20.8-41.1c0-28.1,22.8-50.9,51-50.9s51,22.8,51,50.9c0,14.7-6.4,28.8-17.5,38.4
	 M102.4,7.2c27.1,0,49.1,22,49.1,49.1c0,14.4-6.2,27.4-16.1,36.3c0.5,1.3,0.8,2.9,0.8,4.7c0,7.9-6.7,12.3-14.2,12.3
	c-2.8,0-5.8-0.5-8.4-1.5l-2.1-0.7l-0.1-1.7c-2.1,2.5-5.4,3.9-9.9,3.9c-4.6,0-9.4-0.9-12.1-5c-0.2-0.3-0.4-0.6-0.6-0.9v5.3H68.6V100
	H72v0v-5.3c-11.4-9-18.7-22.9-18.7-38.5C53.3,29.1,75.3,7.2,102.4,7.2"/>
<path class="st1" d="M72.3,97.3c-13.1-9.6-20.8-24.9-20.8-41.1c0-28.1,22.8-50.9,51-50.9s51,22.8,51,50.9c0,14.7-6.4,28.8-17.5,38.4
	 M102.4,7.2c27.1,0,49.1,22,49.1,49.1c0,14.4-6.2,27.4-16.1,36.3c0.5,1.3,0.8,2.9,0.8,4.7c0,7.9-6.7,12.3-14.2,12.3
	c-2.8,0-5.8-0.5-8.4-1.5l-2.1-0.7l-0.1-1.7c-2.1,2.5-5.4,3.9-9.9,3.9c-4.6,0-9.4-0.9-12.1-5c-0.2-0.3-0.4-0.6-0.6-0.9v5.3H68.6V100
	H72v0v-5.3c-11.4-9-18.7-22.9-18.7-38.5C53.3,29.1,75.3,7.2,102.4,7.2z"/>
<path class="st2" d="M113.7,97.7l-0.1,0c0,0.1,0.1,0.3,0.1,0.4V97.7z M113.7,75v2c-2.3,0-2.6,0.5-2.6,3.5v14.9
	c0,3.9-0.7,10.6-9.6,10.6c-9.4,0-10.8-4.5-10.8-10.8V80.5c0-3-0.3-3.5-2.9-3.5v-2h12.1v2c-2.5,0-2.7,0.3-2.7,3.5V95
	c0,3.2,0.4,8.2,5.6,8.2c5.5,0,5.7-5.5,5.7-8.1V80.5c0-3.1-0.4-3.5-2.7-3.5v-2H113.7z M72.1,105.3h13.2v-1.9c-3.1,0-3.4-0.5-3.4-3.5
	V80.5c0-3,0.3-3.5,3.4-3.5v-2H72.1v2c3.1,0,3.4,0.4,3.4,3.5v19.5c0,3-0.3,3.5-3.4,3.5V105.3z M113.7,77l0.1,0v-2h-0.1V77z
	 M113.7,98.1v-0.4l2.4-0.6c1.2,5.2,3.1,6.5,6,6.5c2.4,0,4.6-1.7,4.6-4.7c0-2.8-1.3-4.1-5.5-7.1c-4.7-3.3-7.1-5-7.1-9.6
	c0-3.2,2.3-7.7,9.8-7.7c2.7,0,5,0.5,6.6,1.2c0.1,1.6,0.4,3.9,0.8,6.6l-2.5,0.4c-0.8-4.4-1.8-5.8-5-5.8c-2.7,0-4.1,1.7-4.1,3.8
	c0,2.5,1.5,3.8,5.2,6.4c5.3,3.7,7.7,5.5,7.7,10.2c0,5-4,8.8-10.7,8.8c-2.6,0-5.2-0.5-7.3-1.3C114.6,102.2,114.2,100.1,113.7,98.1"/>
<path class="st2" d="M59.6,64.3v0.5c0,0-0.1,0.1-0.1,0.1c-0.1,0.1-0.1,0.1-0.1,0.2c0,0.1,0,0.1,0,0.2c0,0.1,0,0.1,0,0.2l0.2,0.7l0,0
	V68l-0.8-3.3L59.6,64.3z M59.6,61.7v1l-0.1,0c-0.1,0-0.3,0-0.3,0.1c-0.1,0-0.1,0.1-0.2,0.1c0,0-0.1,0.1-0.1,0.2c0,0.1,0,0.2,0,0.3
	l-0.3,0l-0.4-3.6l1.3-0.4l0,0.4c-0.2,0.1-0.4,0.1-0.5,0.2c-0.1,0.1-0.2,0.1-0.3,0.2c-0.1,0.1-0.1,0.1-0.1,0.2c0,0.1,0,0.2,0,0.3
	l0.1,0.9c0,0.1,0,0.1,0,0.2c0,0,0.1,0.1,0.1,0.1c0.1,0,0.1,0,0.2,0L59.6,61.7z M59.6,53.7v1l0,0c-0.2,0-0.3,0-0.5,0.1
	c-0.1,0-0.3,0.1-0.4,0.2c-0.1,0.1-0.2,0.2-0.2,0.4c-0.1,0.1-0.1,0.3-0.1,0.5l0,0.4c0,0.1,0,0.1,0,0.1c0,0,0.1,0,0.1,0.1
	c0.1,0,0.2,0,0.3,0l0.7,0v1l-0.6,0c-0.1,0-0.3,0-0.3,0c-0.1,0-0.2,0-0.2,0.1c0,0-0.1,0.1-0.1,0.2c0,0.1,0,0.2,0,0.3l-0.3,0l0-2.2
	c0-0.2,0-0.5,0-0.7c0-0.2,0.1-0.4,0.1-0.5c0.1-0.2,0.1-0.3,0.2-0.4c0.1-0.2,0.3-0.3,0.5-0.4C59.1,53.8,59.3,53.7,59.6,53.7
	L59.6,53.7z M59.6,50.2v0.9l-0.4,0.1l0,0l0.4,0.1v0.4l-0.4-0.1c-0.1,0-0.3,0-0.3,0c-0.1,0-0.2,0-0.2,0c0,0-0.1,0.1-0.1,0.2
	c0,0.1,0,0.2-0.1,0.3l-0.3,0l0.2-1.5L59.6,50.2z M59.6,47.8v0.4c-0.1,0-0.2,0-0.2,0c-0.1,0-0.2,0-0.2,0.1c0,0-0.1,0.1-0.1,0.2
	c0,0.1,0,0.2-0.1,0.3l-0.3,0l0.3-1.6l0.3,0.1c0,0.1,0,0.2,0,0.3c0,0.1,0,0.1,0.1,0.2c0,0,0.1,0.1,0.2,0.1
	C59.5,47.8,59.5,47.8,59.6,47.8 M59.6,64.8v-0.5l0.5-0.2l0.1,0.4c-0.2,0.1-0.3,0.1-0.4,0.2C59.7,64.7,59.6,64.8,59.6,64.8
	 M62.2,72.5v2.2L62,74.7l-0.6-1.4L62.2,72.5z M62.2,69.8v0.5l-0.8,0.3c-0.1,0.1-0.2,0.1-0.3,0.1c-0.1,0-0.1,0.1-0.1,0.2
	c0,0.1,0,0.1,0,0.2c0,0.1,0.1,0.2,0.1,0.3l-0.3,0.1L60.1,70l0.3-0.1c0,0.1,0.1,0.2,0.1,0.3c0,0.1,0.1,0.1,0.1,0.1c0.1,0,0.1,0,0.2,0
	c0.1,0,0.2-0.1,0.3-0.1L62.2,69.8z M62.2,65.5v1l-2.4,0.6l0.2,0.7c0,0.1,0,0.2,0.1,0.2c0,0.1,0.1,0.1,0.1,0.1c0,0,0.1,0.1,0.2,0.1
	c0.1,0,0.2,0,0.3,0c0.1,0,0.3,0,0.5,0l0.1,0.4l-1.4,0.2L59.6,68v-1.8L62.2,65.5z M62.2,61.4v1l-2.6,0.3v-1l1.4-0.2l-0.1-0.8
	c0-0.1,0-0.2-0.1-0.2c0-0.1-0.1-0.1-0.1-0.1c-0.1,0-0.1,0-0.2,0c-0.1,0-0.2,0-0.4,0l0-0.4l2-0.2l0,0.4c-0.2,0-0.3,0-0.4,0.1
	c-0.1,0-0.2,0.1-0.2,0.1c0,0-0.1,0.1-0.1,0.1c0,0.1,0,0.1,0,0.2l0.1,0.8L62.2,61.4z M62.2,54.5v1l-1,0.5l0,0.5l1,0v1l-2.6,0v-1
	l1.2,0l0-0.5c0-0.2,0-0.4,0-0.5c0-0.2-0.1-0.3-0.2-0.4c-0.1-0.1-0.2-0.2-0.4-0.3c-0.2-0.1-0.4-0.1-0.6-0.1v-1c0.2,0,0.3,0,0.5,0.1
	c0.2,0.1,0.3,0.1,0.4,0.3c0.1,0.1,0.2,0.3,0.3,0.4c0.1,0.2,0.2,0.4,0.2,0.6L62.2,54.5z M62.2,51.7v0.4l-2.6-0.4v-0.4L62.2,51.7z
	 M62.2,49.3v0.9l-2.6,0.9v-0.9L62.2,49.3z M62.2,48.2v0.4l-2.4-0.4c0,0-0.1,0-0.1,0v-0.4c0.1,0,0.1,0,0.2,0L62.2,48.2z M62.2,43.4
	v0.9l-1.4,0l0,0l1.4,0.9v0.5L59.6,44l0.2-0.5L62.2,43.4z M62.2,37.5v1.8l-0.3-0.1l-0.3,0.7c0,0.1-0.1,0.2-0.1,0.2c0,0.1,0,0.1,0,0.2
	c0,0.1,0,0.1,0.1,0.2c0.1,0.1,0.1,0.1,0.2,0.2c0.1,0.1,0.2,0.2,0.4,0.3L62,41.3l-1.2-0.8L62.2,37.5z M62.2,50.1v-0.9l1.2-0.4l0,0
	l-1.2-0.2v-0.4l2.5,0.4l-0.1,0.7L62.2,50.1z M62.2,52.1v-0.4l1,0.2c0.1,0,0.3,0,0.3,0c0.1,0,0.2,0,0.2,0c0,0,0.1-0.1,0.1-0.2
	c0-0.1,0-0.2,0.1-0.3l0.3,0L63.9,53l-0.3,0c0-0.1,0-0.2,0-0.3c0-0.1,0-0.1-0.1-0.2c0,0-0.1-0.1-0.2-0.1c-0.1,0-0.2-0.1-0.3-0.1
	L62.2,52.1z M62.2,55.5v-1L63,54c0.1-0.1,0.2-0.1,0.3-0.2c0.1-0.1,0.1-0.1,0.2-0.2c0-0.1,0.1-0.1,0.1-0.2c0-0.1,0-0.1,0-0.2l0.3,0
	l0,1.3L62.2,55.5z M62.2,57.5v-1l0.7,0c0.1,0,0.3,0,0.4,0c0.1,0,0.2,0,0.2-0.1c0,0,0.1-0.1,0.1-0.2c0-0.1,0-0.2,0-0.3l0.3,0l0,2.2
	l-0.3,0c0-0.1,0-0.3,0-0.3c0-0.1,0-0.2-0.1-0.2c0,0-0.1-0.1-0.2-0.1c-0.1,0-0.2,0-0.3,0L62.2,57.5z M62.2,62.3v-1l1.3-0.2
	c0.1,0,0.2,0,0.2-0.1c0,0,0.1,0,0.1-0.1c0,0,0-0.1,0-0.1l-0.1-1.2c0-0.1,0-0.2-0.1-0.3c0-0.1-0.1-0.1-0.1-0.2
	c-0.1,0-0.2-0.1-0.3-0.1c-0.1,0-0.3-0.1-0.5-0.1l0-0.4l1.4,0.1l0.5,3.8l-0.3,0c0-0.1,0-0.3-0.1-0.3c0-0.1-0.1-0.1-0.1-0.2
	c0,0-0.1-0.1-0.2-0.1c-0.1,0-0.2,0-0.3,0L62.2,62.3z M65,68.7v1.6l-2.5,3.1l0,0l2.5-1v0.5l-2.3,0.9c-0.1,0.1-0.2,0.1-0.3,0.1
	c-0.1,0-0.1,0.1-0.1,0.1c0,0.1,0,0.1,0,0.2c0,0.1,0.1,0.2,0.1,0.3l-0.2,0.1v-2.2l2.6-3.2l0,0l-2.6,1.1v-0.5L65,68.7z M65,65.5v1
	l-0.1,0c0-0.2-0.1-0.3-0.1-0.4c0-0.1-0.1-0.2-0.1-0.2c-0.1,0-0.1,0-0.2,0c-0.1,0-0.2,0-0.3,0.1l-2,0.5v-1l1.7-0.4
	c0.1,0,0.2-0.1,0.3-0.1c0.1,0,0.1-0.1,0.2-0.1c0-0.1,0-0.1,0-0.2c0-0.1,0-0.2-0.1-0.4l0.3-0.1L65,65.5z M65,43.3v0.9l-0.1,0l-1,0
	L63.3,46l0.8,0.5c0.1,0,0.1,0.1,0.2,0.1c0.1,0,0.1,0.1,0.1,0.1c0.1,0,0.1,0,0.2,0c0,0,0.1-0.1,0.1-0.3l0.2,0.1v0.4l-0.3,0.9
	l-0.3-0.1c0-0.1,0-0.2,0-0.2c0-0.1,0-0.1-0.1-0.2c0-0.1-0.1-0.1-0.2-0.2l-2-1.3v-0.5l0.9,0.6l0.5-1.5l-1.3,0v-0.9L65,43.3z M65,39.6
	v1.1l-2.8-1.3v-1.8l0.4-0.9l1.4,0.4l-0.2,0.3c-0.2-0.1-0.3-0.1-0.5-0.1c-0.1,0-0.2,0-0.3,0c-0.1,0-0.1,0-0.2,0c0,0-0.1,0.1-0.1,0.1
	c0,0.1-0.1,0.1-0.1,0.2l-0.3,0.7L65,39.6z M65,35v1.1l-0.8-0.5c-0.1-0.1-0.2-0.1-0.3-0.2c-0.1,0-0.2,0-0.2,0c-0.1,0-0.1,0.1-0.2,0.1
	c-0.1,0.1-0.1,0.2-0.2,0.3L63,35.7l1.1-2l0.3,0.2c-0.1,0.1-0.1,0.2-0.2,0.3c0,0.1,0,0.2,0,0.2c0,0.1,0.1,0.1,0.1,0.2
	c0.1,0.1,0.2,0.1,0.3,0.2L65,35z M65,75.2l-1.3,0.7c-0.1,0.1-0.2,0.1-0.3,0.2c-0.1,0-0.2,0-0.2,0c-0.1,0-0.1-0.1-0.2-0.1
	c-0.1-0.1-0.1-0.2-0.2-0.3l-0.3,0.2l1.1,2l0.3-0.2c-0.1-0.1-0.1-0.2-0.2-0.3c0-0.1,0-0.2,0-0.2c0-0.1,0.1-0.1,0.1-0.2
	c0.1-0.1,0.2-0.1,0.3-0.2l0.8-0.4V75.2z M65,44.2v-0.9l0.2,0c0.2,0,0.3,0,0.4,0c0.1,0,0.2-0.1,0.2-0.1c0,0,0.1-0.1,0.1-0.2l0.3,0.1
	l-0.5,1.8l-0.3-0.1c0-0.1,0.1-0.2,0-0.3c0-0.1-0.1-0.1-0.1-0.1C65.2,44.2,65.1,44.2,65,44.2C65.1,44.2,65,44.2,65,44.2 M65,46.8
	v-0.4l0.1,0L65,46.8z M65,66.5v-1l0.2,1L65,66.5z M65,70.3v-1.6l0.8-0.3L66,69L65,70.3z M67.3,72.4v0.2l-0.2,0.1
	c0-0.1-0.1-0.2-0.1-0.3c0-0.1-0.1-0.1-0.1-0.1c-0.1,0-0.1,0-0.2,0c-0.1,0-0.2,0.1-0.3,0.1L65,72.9v-0.5l1.1-0.5
	c0.1-0.1,0.2-0.1,0.3-0.1c0.1,0,0.1-0.1,0.2-0.1c0-0.1,0-0.1,0-0.2c0-0.1-0.1-0.2-0.1-0.3l0.3-0.1L67.3,72.4z M67.3,39.9v0.3
	l-0.9,1.9L66.2,42c0.1-0.2,0.1-0.3,0.2-0.4c0-0.1,0-0.2,0-0.2c0-0.1-0.1-0.1-0.1-0.2c-0.1,0-0.2-0.1-0.3-0.2L65,40.6v-1.1l1.3,0.6
	c0.1,0.1,0.2,0.1,0.3,0.1c0.1,0,0.2,0,0.2,0c0.1,0,0.1-0.1,0.2-0.2c0.1-0.1,0.1-0.2,0.2-0.4L67.3,39.9z M67.3,36.3v1.1L65,36.1V35
	L67.3,36.3z M67.3,29.6v0.7c-0.1,0-0.1,0-0.2,0c-0.2,0-0.3,0.1-0.5,0.2c-0.2,0.1-0.3,0.2-0.4,0.4c0,0-0.1,0.1-0.1,0.2
	c0,0.1-0.1,0.2-0.1,0.2c0,0.1,0,0.2,0,0.3c0,0.1,0,0.2,0.1,0.4c0,0.2,0.1,0.3,0.3,0.5c0.1,0.2,0.3,0.3,0.5,0.5
	c0.1,0.1,0.3,0.3,0.5,0.4v1.2c-0.1-0.1-0.2-0.1-0.3-0.2c-0.3-0.2-0.5-0.4-0.7-0.6c-0.2-0.2-0.4-0.4-0.5-0.7
	c-0.1-0.2-0.2-0.5-0.3-0.8c0-0.3,0-0.5,0-0.8c0.1-0.3,0.2-0.6,0.4-0.9c0.2-0.3,0.4-0.5,0.6-0.6c0.2-0.2,0.4-0.3,0.7-0.3
	C67.3,29.6,67.3,29.6,67.3,29.6 M67.3,73.9c-0.1,0-0.1,0.1-0.2,0.1L65,75.2v1.1l2.4-1.3V73.9z M67.3,37.4v-1.1l0.7,0.4
	c0.1,0.1,0.2,0.1,0.3,0.2c0.1,0,0.2,0,0.2,0c0.1,0,0.1-0.1,0.2-0.1c0.1-0.1,0.1-0.2,0.2-0.3l0.3,0.2l-1.1,2l-0.3-0.2
	c0.1-0.1,0.1-0.2,0.2-0.3c0-0.1,0-0.2,0-0.2c0-0.1-0.1-0.1-0.1-0.2c-0.1-0.1-0.2-0.1-0.3-0.2L67.3,37.4z M67.3,40.2v-0.3l0.1,0
	L67.3,40.2z M67.3,72.6v-0.2V72.6L67.3,72.6z M70,34.4V35c-0.3,0.1-0.5,0.2-0.8,0.2c-0.3,0-0.7-0.1-1-0.2c-0.3-0.1-0.5-0.2-0.8-0.4
	v-1.2c0.1,0.1,0.2,0.1,0.3,0.2c0.1,0.1,0.3,0.2,0.5,0.3c0.2,0.1,0.3,0.2,0.5,0.3c0.2,0.1,0.4,0.2,0.6,0.2c0.2,0,0.4,0.1,0.5,0.1
	C69.8,34.4,69.9,34.4,70,34.4 M70,30.3v1.3c-0.2-0.2-0.4-0.3-0.6-0.5c-0.2-0.1-0.3-0.2-0.5-0.3c-0.2-0.1-0.4-0.2-0.5-0.3
	c-0.2-0.1-0.4-0.1-0.5-0.2c-0.1,0-0.3,0-0.4-0.1v-0.7c0.2,0,0.4-0.1,0.6-0.1c0.2,0,0.5,0,0.7,0.1c0.2,0.1,0.4,0.2,0.7,0.3
	C69.5,30,69.7,30.2,70,30.3L70,30.3z M70,26.5v0.9l-0.1,0l0,0l0.1,0.1V28l-0.4-0.4c-0.1-0.1-0.2-0.2-0.3-0.2c-0.1,0-0.1-0.1-0.2-0.1
	c-0.1,0-0.1,0-0.2,0.1c-0.1,0.1-0.1,0.1-0.2,0.2l-0.2-0.2l1-1.1L70,26.5z M68.8,75l-1.1-2l-0.3,0.2c0.1,0.1,0.1,0.2,0.2,0.3
	c0,0.1,0,0.2,0,0.2c0,0.1-0.1,0.1-0.1,0.2c0,0,0,0-0.1,0.1V75l0.2-0.1c0.1-0.1,0.2-0.1,0.3-0.2c0.1,0,0.2,0,0.2,0
	c0.1,0,0.1,0.1,0.2,0.1c0.1,0.1,0.1,0.2,0.2,0.3L68.8,75z M70,28l2.4,2.3c0.1,0.1,0.2,0.2,0.2,0.3c0.1,0.1,0.1,0.1,0.1,0.2
	c0,0.1,0,0.1-0.1,0.2c0,0.1-0.1,0.1-0.2,0.2l0.2,0.2l1.1-1.2l-0.2-0.2c-0.1,0.1-0.2,0.2-0.2,0.2c-0.1,0-0.1,0.1-0.2,0.1
	c-0.1,0-0.1,0-0.2-0.1c-0.1,0-0.2-0.1-0.3-0.2L70,27.4V28z M70,35v-0.6c0.1,0,0.2-0.1,0.3-0.1c0.2-0.1,0.3-0.2,0.4-0.4
	c0.1-0.2,0.2-0.4,0.2-0.6c0-0.2,0-0.4-0.1-0.6c-0.1-0.2-0.2-0.3-0.3-0.5c-0.1-0.2-0.3-0.4-0.5-0.5l0,0v-1.3c0.2,0.2,0.4,0.3,0.6,0.5
	c0.2,0.2,0.4,0.4,0.5,0.7c0.1,0.2,0.2,0.5,0.3,0.8c0,0.3,0,0.5,0,0.8c-0.1,0.3-0.2,0.6-0.4,0.9c-0.3,0.4-0.5,0.6-0.8,0.8
	C70.1,34.9,70,34.9,70,35 M75.1,27.6v1.1L70,27.3v-0.9l4.6,1.2l0,0L72,25.2c-0.1-0.1-0.2-0.2-0.3-0.2c-0.1,0-0.1-0.1-0.2-0.1
	c-0.1,0-0.1,0-0.2,0.1c-0.1,0.1-0.1,0.1-0.2,0.2L70.9,25l1.1-1.2l0.2,0.2c-0.1,0.1-0.2,0.2-0.2,0.2c0,0.1-0.1,0.1-0.1,0.2
	c0,0.1,0,0.1,0.1,0.2c0.1,0.1,0.1,0.2,0.2,0.3L75.1,27.6z M75.1,21.5v2.1l-0.7-1.9l0.4-0.3L75.1,21.5z M75.5,28v0.7l-0.1,0.1
	l-0.2-0.1v-1.1L75.5,28z M75.5,21.7v1l-0.3-0.2l0,0l0.3,0.9v1.2l-0.4-1v-2.1L75.5,21.7z M75.5,28.6V28l0.3,0.3L75.5,28.6z
	 M77.4,24.1L76.1,25l-0.6-1.6v1.2l0.8,2.1c0,0.1,0.1,0.2,0.1,0.3c0,0.1,0,0.1,0,0.2c0,0.1-0.1,0.1-0.2,0.2l0.2,0.2l1-0.8v-0.1
	l-0.1-0.2c-0.1,0.1-0.2,0.1-0.3,0.2c-0.1,0-0.1,0-0.2-0.1c0,0-0.1-0.1-0.1-0.1c0-0.1-0.1-0.1-0.1-0.2l-0.3-0.8l1.1-0.8V24.1z
	 M77.4,23v1.1l-1.8-1.3v-1L77.4,23z M77.4,19.5v0.1V19.5L77.4,19.5z M77.4,26.9v-0.1V26.9L77.4,26.9z M78.8,25.4v0.4l-0.2-0.2
	C78.7,25.5,78.7,25.4,78.8,25.4 M78.8,23.9v1.2c0,0,0,0-0.1-0.1c0,0-0.1-0.1-0.1-0.1l-0.8-0.6l-0.4,0.3v-0.5l0,0l0,0V23L78.8,23.9z
	 M78.8,18.6v2.1L78.4,20c-0.1-0.1-0.1-0.2-0.2-0.3c-0.1-0.1-0.1-0.1-0.2-0.1c-0.1,0-0.1,0-0.2,0c-0.1,0-0.2,0.1-0.3,0.2l-0.1-0.2
	v-0.1L78.8,18.6z M109,16.8l-0.4-0.1c-0.1,0.2-0.1,0.4-0.2,0.5c-0.1,0.1-0.1,0.2-0.2,0.3c-0.1,0.1-0.1,0.1-0.2,0.1
	c-0.1,0-0.2,0-0.3,0l-1.2-0.2c-0.1,0-0.1,0-0.1,0c0,0,0-0.1-0.1-0.1c0-0.1,0-0.1,0-0.2l0.3-2.1l0.8,0.1c0.1,0,0.2,0,0.2,0
	c0.1,0,0.1,0.1,0.1,0.1c0,0.1,0,0.1,0,0.2c0,0.1,0,0.3,0,0.4l0.4,0.1l0.3-2l-0.4-0.1c0,0.2,0,0.3-0.1,0.4c0,0.1-0.1,0.2-0.1,0.2
	c0,0-0.1,0.1-0.1,0.1c-0.1,0-0.1,0-0.2,0l-0.8-0.1l0.3-1.8c0-0.1,0-0.2,0-0.2c0-0.1,0-0.1,0.1-0.1c0,0,0.1,0,0.2,0l0.9,0.1
	c0.1,0,0.2,0,0.3,0.1c0.1,0,0.1,0.1,0.2,0.1c0,0.1,0.1,0.2,0.1,0.3c0,0.1,0,0.3,0.1,0.5l0.4,0.1l-0.1-1.3l-3.6-0.5l0,0.3
	c0.1,0,0.3,0,0.3,0.1c0.1,0,0.1,0.1,0.2,0.1c0,0,0.1,0.1,0.1,0.2c0,0.1,0,0.2,0,0.3l-0.5,3.9c0,0.1,0,0.3-0.1,0.3
	c0,0.1-0.1,0.1-0.1,0.2c0,0-0.1,0.1-0.2,0.1c-0.1,0-0.2,0-0.3,0l0,0.3l3.8,0.5L109,16.8z M102.2,16.5l-1.3-3.8c0-0.1,0-0.1-0.1-0.2
	c0-0.1,0-0.1,0-0.2c0-0.1,0-0.1,0.1-0.2c0.1,0,0.2-0.1,0.3-0.1v-0.3h-1.9v0.3c0.1,0,0.2,0,0.2,0c0.1,0,0.1,0,0.1,0.1
	c0,0,0.1,0.1,0.1,0.2c0,0.1,0.1,0.2,0.1,0.3l1.7,5.1h0.6l1.6-5.2c0-0.1,0.1-0.2,0.1-0.3c0-0.1,0.1-0.1,0.1-0.1c0.1,0,0.1,0,0.2,0
	v-0.3h-1.4v0.3c0.1,0,0.2,0,0.2,0c0.1,0,0.1,0,0.1,0.1c0,0,0,0.1,0,0.1c0,0,0,0.1,0,0.2c0,0.1,0,0.1-0.1,0.2L102.2,16.5L102.2,16.5z
	 M96.8,18l2.3-0.3l0-0.3c-0.2,0-0.3,0-0.4,0c-0.1,0-0.2,0-0.2-0.1s-0.1-0.1-0.1-0.2c0-0.1,0-0.2-0.1-0.3L97.7,13c0-0.1,0-0.3,0-0.3
	c0-0.1,0-0.2,0.1-0.2c0,0,0.1-0.1,0.2-0.1c0.1,0,0.2,0,0.4-0.1l0-0.3L96,12.3l0,0.3c0.2,0,0.3,0,0.4,0c0.1,0,0.2,0,0.2,0.1
	c0,0,0.1,0.1,0.1,0.2c0,0.1,0,0.2,0.1,0.3l0.5,3.9c0,0.1,0,0.3,0,0.3c0,0.1,0,0.2-0.1,0.2c0,0.1-0.1,0.1-0.2,0.1
	c-0.1,0-0.2,0.1-0.4,0.1L96.8,18z M90.1,13.4l0.1,0.3c0.1,0,0.2,0,0.3-0.1c0.1,0,0.1,0,0.2,0c0,0,0.1,0.1,0.1,0.2
	c0,0.1,0.1,0.2,0.1,0.3l0.8,3.8c0,0.1,0,0.3,0.1,0.3c0,0.1,0,0.2,0,0.2c0,0.1-0.1,0.1-0.2,0.1c-0.1,0-0.2,0.1-0.3,0.1l0.1,0.3
	l1.6-0.3l-0.1-0.3c-0.1,0-0.2,0-0.3,0c-0.1,0-0.1,0-0.2,0c0,0-0.1-0.1-0.1-0.2c0-0.1-0.1-0.2-0.1-0.3l-0.8-3.9l0,0l3.8,4.3l0.7-0.1
	l-1-4.8c0-0.1,0-0.3-0.1-0.3c0-0.1,0-0.2,0-0.2c0-0.1,0.1-0.1,0.2-0.1c0.1,0,0.2-0.1,0.3-0.1l-0.1-0.3l-1.6,0.3l0.1,0.3
	c0.1,0,0.2,0,0.3-0.1c0.1,0,0.2,0,0.2,0c0.1,0,0.1,0.1,0.1,0.2c0,0.1,0.1,0.2,0.1,0.3l0.8,3.6l0,0l-3.5-4L90.1,13.4z M85.8,16
	c-0.1-0.1-0.1-0.2-0.1-0.3c0-0.1,0-0.2,0-0.2c0-0.1,0.1-0.1,0.1-0.1c0.1,0,0.2-0.1,0.3-0.1L86,14.9L84,15.7l0.1,0.3
	c0.1,0,0.2-0.1,0.3-0.1c0.1,0,0.1,0,0.2,0c0.1,0,0.1,0.1,0.1,0.2c0,0.1,0.1,0.2,0.1,0.3l1.1,2.7c0.1,0.2,0.2,0.4,0.3,0.6
	c0.1,0.2,0.2,0.3,0.4,0.5c0.1,0.1,0.3,0.2,0.5,0.3c0.2,0.1,0.4,0.1,0.7,0.1c0.3,0,0.6-0.1,0.9-0.2c0.3-0.1,0.5-0.3,0.7-0.4
	c0.2-0.2,0.3-0.3,0.4-0.5c0.1-0.2,0.1-0.5,0.1-0.7c0-0.3-0.1-0.6-0.2-0.9l-1.1-2.7c-0.1-0.1-0.1-0.2-0.1-0.3c0-0.1,0-0.2,0-0.2
	c0-0.1,0.1-0.1,0.1-0.1c0.1,0,0.1-0.1,0.3-0.1l-0.1-0.3l-1.4,0.6l0.1,0.3c0.1,0,0.2-0.1,0.3-0.1c0.1,0,0.1,0,0.2,0
	c0.1,0,0.1,0.1,0.1,0.2c0,0.1,0.1,0.2,0.1,0.3l1.1,2.7c0,0.1,0.1,0.2,0.1,0.4c0,0.1,0.1,0.3,0.1,0.4c0,0.2,0,0.3,0,0.4
	c0,0.1-0.1,0.3-0.2,0.4c-0.1,0.1-0.3,0.2-0.5,0.3c-0.2,0.1-0.4,0.1-0.6,0.1c-0.2,0-0.3,0-0.4-0.1c-0.1-0.1-0.2-0.2-0.3-0.3
	c-0.1-0.1-0.2-0.2-0.2-0.4c-0.1-0.1-0.1-0.3-0.2-0.4L85.8,16z M78.8,20.6l1.7,2.6c0.1,0.1,0.1,0.2,0.2,0.3c0,0.1,0,0.2,0,0.2
	c0,0.1,0,0.1-0.1,0.2c-0.1,0.1-0.2,0.1-0.3,0.2l0.2,0.3l3.2-2.1L83.2,21l-0.3,0.2c0.1,0.2,0.1,0.4,0.2,0.5c0,0.1,0.1,0.3,0,0.3
	c0,0.1,0,0.2-0.1,0.2c-0.1,0.1-0.1,0.1-0.2,0.2l-0.9,0.6c-0.1,0-0.1,0.1-0.1,0.1c0,0-0.1,0-0.1,0c0,0-0.1-0.1-0.2-0.2l-2.2-3.4
	c-0.1-0.1-0.1-0.2-0.2-0.3c0-0.1-0.1-0.1,0-0.2c0-0.1,0-0.1,0.1-0.2c0.1-0.1,0.2-0.1,0.3-0.2l-0.2-0.3l-0.4,0.3V20.6z M78.8,25.8
	v-0.4c0,0,0,0,0-0.1c0-0.1,0-0.1,0-0.2l0,0v-1.2l0.5,0.4c0.1,0.1,0.2,0.2,0.3,0.2c0.1,0,0.2,0,0.2,0c0.1,0,0.1,0,0.2-0.1l0.2,0.2
	L78.8,25.8L78.8,25.8z M112.5,12.9v0.4l-0.3-0.1c-0.1,0-0.1,0-0.1,0c0,0-0.1,0.1-0.1,0.1c0,0.1,0,0.2-0.1,0.3l-0.4,1.9l0.4,0.1
	c0.2,0,0.4,0.1,0.5,0.1l0,0V18l-0.6-2l-0.5-0.1l-0.4,1.6c0,0.1-0.1,0.3-0.1,0.3c0,0.1,0,0.2,0,0.2c0,0.1,0.1,0.1,0.2,0.1
	c0.1,0,0.2,0.1,0.3,0.1l-0.1,0.3l-2.1-0.5l0.1-0.3c0.1,0,0.3,0,0.3,0.1c0.1,0,0.2,0,0.2,0c0,0,0.1-0.1,0.1-0.2
	c0-0.1,0.1-0.2,0.1-0.3l0.8-3.8c0-0.1,0-0.3,0.1-0.3c0-0.1,0-0.2,0-0.2c0-0.1-0.1-0.1-0.2-0.1c-0.1,0-0.2-0.1-0.3-0.1l0.1-0.3
	L112.5,12.9z M114.7,18.1c0,0.2,0,0.4-0.1,0.6c0,0.2-0.1,0.4-0.1,0.7c0.1,0.1,0.2,0.2,0.4,0.3c0.1,0.1,0.3,0.2,0.4,0.2
	c0.1,0.1,0.3,0.1,0.4,0.2c0.3,0.1,0.6,0.2,0.8,0.2c0.3,0,0.5,0,0.7-0.1c0.2-0.1,0.4-0.2,0.5-0.4c0.1-0.2,0.3-0.3,0.3-0.6
	c0.1-0.2,0.1-0.4,0.1-0.5c0-0.2,0-0.3-0.1-0.5c0-0.1-0.1-0.2-0.2-0.4c-0.1-0.1-0.2-0.3-0.3-0.4c-0.1-0.2-0.2-0.3-0.4-0.5
	c-0.1-0.2-0.2-0.4-0.3-0.5c-0.1-0.1-0.2-0.3-0.2-0.4c0-0.1-0.1-0.2-0.1-0.3c0-0.1,0-0.2,0.1-0.3c0-0.1,0.1-0.2,0.2-0.3
	c0.1-0.1,0.2-0.1,0.3-0.2s0.2-0.1,0.3,0c0.1,0,0.2,0,0.3,0.1c0.2,0.1,0.3,0.1,0.4,0.2c0.1,0.1,0.2,0.2,0.2,0.3
	c0,0.1,0.1,0.2,0.1,0.4c0,0.2,0,0.3-0.1,0.5l0.4,0.1c0-0.2,0.1-0.3,0.1-0.4c0-0.1,0.1-0.3,0.1-0.4c0-0.1,0.1-0.2,0.1-0.3
	c-0.1-0.1-0.3-0.2-0.5-0.3c-0.2-0.1-0.4-0.2-0.6-0.3c-0.3-0.1-0.5-0.1-0.7-0.2c-0.2,0-0.4,0-0.6,0c-0.2,0-0.3,0.1-0.4,0.2
	c-0.1,0.1-0.2,0.2-0.3,0.3c-0.1,0.1-0.1,0.2-0.2,0.3c-0.1,0.2-0.1,0.4-0.1,0.6c0,0.2,0,0.3,0.1,0.5c0.1,0.2,0.2,0.3,0.3,0.5
	c0.1,0.2,0.3,0.4,0.4,0.6c0.1,0.2,0.3,0.4,0.4,0.5c0.1,0.1,0.2,0.3,0.2,0.4c0.1,0.1,0.1,0.3,0.1,0.4c0,0.1,0,0.3-0.1,0.4
	c-0.1,0.2-0.1,0.3-0.2,0.4c-0.1,0.1-0.2,0.2-0.3,0.2c-0.1,0-0.2,0.1-0.4,0.1c-0.1,0-0.3,0-0.4-0.1c-0.2-0.1-0.3-0.1-0.4-0.2
	c-0.1-0.1-0.2-0.2-0.3-0.3c-0.1-0.1-0.1-0.3-0.1-0.4c0-0.2,0-0.4,0-0.6L114.7,18.1z M112.5,18v-2.3c0.1,0,0.3,0,0.4-0.1
	c0.1-0.1,0.3-0.2,0.4-0.3c0.1-0.1,0.2-0.3,0.2-0.6c0-0.2,0-0.3,0-0.5c0-0.2-0.1-0.3-0.2-0.4c-0.1-0.1-0.2-0.2-0.3-0.3
	c-0.1-0.1-0.3-0.1-0.5-0.2l-0.1,0v-0.4l0.1,0c0.2,0.1,0.5,0.1,0.6,0.2c0.2,0.1,0.3,0.1,0.5,0.2c0.1,0.1,0.3,0.2,0.4,0.3
	c0.1,0.2,0.2,0.3,0.3,0.5c0.1,0.2,0.1,0.4,0,0.7c0,0.2-0.1,0.3-0.2,0.5c-0.1,0.1-0.2,0.3-0.3,0.4c-0.1,0.1-0.3,0.2-0.5,0.3
	c-0.2,0.1-0.4,0.1-0.6,0.1l0.7,2.1c0,0.1,0.1,0.2,0.1,0.3c0,0.1,0.1,0.2,0.1,0.2c0,0,0.1,0.1,0.2,0.1c0.1,0,0.1,0,0.2,0.1l-0.1,0.3
	l-1.3-0.3L112.5,18z"/>
<path class="st2" d="M122,22.6v0.4l-0.6-0.3l0.2-0.3C121.7,22.4,121.8,22.5,122,22.6L122,22.6z M118.1,20.9l2.1,0.9l0.1-0.3
	c-0.1-0.1-0.2-0.1-0.3-0.2c-0.1-0.1-0.1-0.1-0.1-0.2c0-0.1,0-0.1,0-0.2c0-0.1,0.1-0.2,0.1-0.3l1.6-3.6c0.1-0.1,0.1-0.2,0.2-0.3
	c0-0.1,0.1-0.1,0.2-0.1c0,0,0.1,0,0.1,0v-0.4l-1.5-0.7l-0.1,0.3c0.1,0.1,0.2,0.1,0.3,0.2c0.1,0,0.1,0.1,0.1,0.2c0,0.1,0,0.1,0,0.2
	c0,0.1-0.1,0.2-0.1,0.3l-1.6,3.6c-0.1,0.1-0.1,0.2-0.2,0.3c0,0.1-0.1,0.1-0.2,0.1c-0.1,0-0.1,0-0.2,0c-0.1,0-0.2-0.1-0.3-0.1
	L118.1,20.9z M126.4,25.3v0.6l-0.8-0.6l0.2-0.2c0.1,0.1,0.2,0.2,0.3,0.2C126.2,25.3,126.3,25.4,126.4,25.3
	C126.4,25.3,126.4,25.3,126.4,25.3 M126.4,20c0,0.1-0.1,0.2-0.1,0.3l0.1,0V20z M126.4,18.7v0.5l0,0c-0.1,0-0.1-0.1-0.2-0.1l-0.7-0.4
	l-2.2,3.9c-0.1,0.1-0.1,0.2-0.2,0.3c0,0.1,0,0.2,0,0.2c0,0.1,0.1,0.1,0.1,0.2c0.1,0.1,0.2,0.1,0.3,0.2l-0.2,0.3l-1.5-0.9v-0.4
	c0.1,0,0.1,0,0.2,0c0.1,0,0.1-0.1,0.2-0.1c0.1-0.1,0.1-0.2,0.2-0.3l2.2-3.9l-0.7-0.4c-0.1,0-0.2-0.1-0.2-0.1c-0.1,0-0.1,0-0.2,0
	c-0.1,0-0.1,0-0.2,0.1c-0.1,0-0.1,0.1-0.2,0.2c-0.1,0.1-0.2,0.2-0.3,0.4l-0.3-0.2l0.8-1.1L126.4,18.7z M122,16.7
	C122,16.7,122,16.7,122,16.7c0.2,0,0.3,0.1,0.4,0.1l0.1-0.3l-0.6-0.2V16.7z M126.4,20.3l0.2,0.1l0.5-1.3l-0.8-0.4v0.5
	c0,0,0.1,0.1,0.1,0.1c0,0,0,0.1,0,0.2c0,0.1,0,0.2-0.1,0.3c0,0.1,0,0.1-0.1,0.2V20.3z M131.6,28.1V31c-0.2-0.3-0.4-0.5-0.4-0.8
	c-0.1-0.3-0.1-0.7-0.1-1c0.1-0.3,0.2-0.7,0.4-1C131.5,28.2,131.5,28.2,131.6,28.1 M131.6,22.7v0.6c0,0-0.1,0-0.1,0
	c-0.1,0-0.2,0.1-0.3,0.1l-2.6,1l-1,1.2c-0.1,0.1-0.2,0.2-0.2,0.3c0,0.1-0.1,0.1-0.1,0.2c0,0.1,0,0.1,0.1,0.2
	c0.1,0.1,0.2,0.2,0.3,0.3l-0.2,0.2l-1-0.9v-0.6c0.1,0,0.1,0,0.2-0.1c0.1-0.1,0.1-0.1,0.2-0.3l1-1.2l0.5-2.7c0-0.1,0-0.2,0.1-0.3
	c0-0.1,0-0.2,0-0.2c0-0.1,0-0.1-0.1-0.2c0,0-0.1-0.1-0.1-0.1l0.2-0.2l1.5,1.3l-0.2,0.2c-0.1-0.1-0.2-0.2-0.3-0.2c-0.1,0-0.1,0-0.2,0
	c0,0,0,0.1-0.1,0.1c0,0.1,0,0.1-0.1,0.2l-0.4,2.1l0,0l2-0.8c0.1,0,0.2-0.1,0.2-0.1c0.1,0,0.1-0.1,0.1-0.1c0,0,0-0.1,0-0.1
	c0-0.1-0.1-0.1-0.2-0.2l0.2-0.2L131.6,22.7z M131.6,23.2v-0.6l0.5,0.5l-0.2,0.2c-0.1-0.1-0.1-0.1-0.2-0.1
	C131.6,23.2,131.6,23.2,131.6,23.2 M134,33.4v0.4l-0.2-0.3L134,33.4z M134,26.3v0.9c-0.1,0.1-0.2,0.1-0.3,0.2
	c-0.2,0.2-0.5,0.4-0.8,0.6c-0.1,0.1-0.3,0.2-0.4,0.4c-0.1,0.1-0.3,0.3-0.4,0.5c-0.1,0.2-0.2,0.3-0.3,0.5c-0.1,0.2-0.1,0.3-0.2,0.5
	c0,0.2,0,0.4,0,0.5c0,0.2,0.1,0.3,0.3,0.5c0.1,0.2,0.3,0.3,0.5,0.3c0.2,0.1,0.4,0.1,0.6,0.1c0.2,0,0.4-0.1,0.6-0.2
	c0.1,0,0.2-0.1,0.3-0.2v1c-0.2,0-0.4,0.1-0.6,0.1c-0.3,0-0.5-0.1-0.8-0.2c-0.3-0.1-0.5-0.3-0.8-0.6c-0.1-0.1-0.1-0.1-0.2-0.2v-2.9
	c0.2-0.3,0.4-0.5,0.7-0.8c0.2-0.2,0.5-0.4,0.7-0.6c0.3-0.2,0.5-0.3,0.8-0.4C133.8,26.4,133.9,26.4,134,26.3 M134,32
	c0.1,0,0.1,0,0.2-0.1c0.3-0.1,0.5-0.2,0.8-0.4c0.2-0.2,0.5-0.4,0.7-0.6c0.2-0.2,0.3-0.3,0.5-0.5c0.2-0.2,0.3-0.4,0.4-0.6
	c0.1-0.2,0.2-0.4,0.3-0.6c0.1-0.2,0.1-0.5,0.1-0.7c0-0.2-0.1-0.5-0.2-0.7c-0.1-0.2-0.3-0.5-0.5-0.7c-0.3-0.3-0.5-0.5-0.8-0.6
	c-0.3-0.1-0.5-0.2-0.8-0.2c-0.2,0-0.4,0-0.6,0.1v0.9c0.1-0.1,0.2-0.1,0.4-0.2c0.2-0.1,0.4-0.1,0.5-0.1c0.1,0,0.3,0,0.4,0
	c0.1,0,0.2,0.1,0.3,0.1c0.1,0,0.2,0.1,0.2,0.1c0.1,0.1,0.1,0.1,0.1,0.1c0.1,0.2,0.3,0.3,0.3,0.5c0.1,0.2,0.1,0.3,0,0.5
	c0,0.2-0.1,0.3-0.2,0.5c-0.1,0.2-0.2,0.3-0.3,0.5c-0.1,0.2-0.3,0.3-0.4,0.5c-0.1,0.2-0.3,0.3-0.4,0.4c-0.2,0.2-0.4,0.4-0.7,0.6
	c-0.1,0.1-0.2,0.2-0.3,0.2V32z M139.9,71.6v1c-0.2-0.1-0.3-0.1-0.5-0.1c-0.2,0-0.4-0.1-0.6-0.1c-0.2,0-0.4,0-0.6,0
	c-0.2,0-0.3,0.1-0.5,0.2c-0.1,0.1-0.3,0.3-0.3,0.5c-0.1,0.2-0.1,0.4-0.1,0.6c0,0.2,0.1,0.4,0.2,0.6c0.1,0.2,0.2,0.3,0.4,0.5
	c0.2,0.1,0.4,0.3,0.6,0.4c0.2,0.1,0.5,0.3,0.8,0.4c0.2,0.1,0.4,0.2,0.6,0.2l0.1,0v1c-0.1,0-0.2-0.1-0.3-0.1
	c-0.2-0.1-0.5-0.2-0.7-0.3c-0.3-0.1-0.6-0.3-0.8-0.4c-0.2-0.2-0.5-0.4-0.7-0.6c-0.2-0.2-0.3-0.4-0.4-0.7c-0.1-0.3-0.1-0.5-0.1-0.8
	c0-0.3,0.1-0.6,0.3-1c0.2-0.4,0.4-0.7,0.7-1c0.3-0.2,0.6-0.4,0.9-0.4c0.3-0.1,0.7-0.1,1.1,0C139.7,71.6,139.8,71.6,139.9,71.6
	 M139.9,67.7V69l-0.9-0.6l0.2-0.6L139.9,67.7z M139.9,45.5v0.9l-0.2-0.8L139.9,45.5z M139.9,42.9v0.4c-0.1,0-0.1,0-0.2,0
	c-0.1,0-0.1,0-0.2,0c-0.1,0-0.1,0.1-0.1,0.1c0,0.1,0,0.2,0.1,0.3l-0.3,0.1l-0.4-1.3l0.3-0.1c0,0.1,0.1,0.1,0.1,0.2
	c0,0,0.1,0.1,0.2,0.1c0.1,0,0.2,0,0.3,0H139.9z M139.9,40.5v1.2c-0.2,0.1-0.3,0.1-0.5,0.1c-0.2,0-0.4,0-0.6-0.1
	c-0.2-0.1-0.4-0.2-0.6-0.4c-0.2-0.2-0.3-0.4-0.5-0.7c-0.1-0.1-0.1-0.3-0.2-0.4c0-0.2-0.1-0.3-0.1-0.5c0-0.2-0.1-0.3-0.1-0.4
	c0.2-0.1,0.4-0.3,0.6-0.4c0.2-0.1,0.3-0.2,0.5-0.4l0.3,0.3c-0.2,0.2-0.3,0.3-0.5,0.4c-0.1,0.1-0.2,0.3-0.2,0.4c0,0.1-0.1,0.3,0,0.4
	c0,0.1,0.1,0.3,0.1,0.4c0.1,0.1,0.1,0.2,0.2,0.3c0.1,0.1,0.2,0.2,0.3,0.2c0.1,0.1,0.2,0.1,0.4,0.1c0.1,0,0.3,0,0.4-0.1
	c0.1-0.1,0.3-0.1,0.4-0.2C139.8,40.6,139.8,40.6,139.9,40.5 M139.9,33.5C139.8,33.5,139.8,33.6,139.9,33.5c-0.1,0.2-0.2,0.3-0.4,0.5
	l0.2,0.3l0.2-0.2V33.5z M139.9,32.2v0.7l0,0l-0.5-0.8c0-0.1-0.1-0.1-0.1-0.1c0,0-0.1,0-0.1,0c-0.1,0-0.1,0.1-0.2,0.1l-1.6,1.1
	l0.4,0.7c0,0.1,0.1,0.1,0.1,0.2c0,0,0.1,0.1,0.2,0c0.1,0,0.1,0,0.2-0.1c0.1,0,0.2-0.1,0.4-0.2l0.2,0.3l-1.7,1.1l-0.2-0.3
	c0.2-0.1,0.3-0.2,0.4-0.3c0.1-0.1,0.1-0.1,0.2-0.2c0-0.1,0-0.1,0-0.2c0-0.1-0.1-0.1-0.1-0.2l-0.5-0.7l-1.5,1
	c-0.1,0.1-0.2,0.1-0.3,0.2c-0.1,0.1-0.1,0.1-0.1,0.2c0,0.1,0,0.1,0.1,0.2c0,0.1,0.1,0.2,0.2,0.3l-0.3,0.2l-1.1-1.6v-0.4l0.1,0
	c0.1,0.1,0.1,0.2,0.2,0.3c0.1,0.1,0.1,0.1,0.2,0.1c0.1,0,0.1,0,0.2,0c0.1,0,0.2-0.1,0.3-0.2l3.2-2.2c0.1-0.1,0.2-0.1,0.3-0.2
	c0.1-0.1,0.1-0.1,0.1-0.2c0-0.1,0-0.1,0-0.2c0-0.1-0.1-0.2-0.2-0.3l0.3-0.2L139.9,32.2z M139.9,34.1v-0.6c0.1-0.1,0.1-0.1,0.1-0.2
	c0-0.1,0-0.1,0-0.2c0-0.1-0.1-0.1-0.1-0.2v-0.7l0.8,1.2L139.9,34.1z M142.5,73.3v2.3c-0.1,0.2-0.3,0.4-0.4,0.6
	c-0.2,0.2-0.4,0.4-0.6,0.5c-0.2,0.1-0.4,0.2-0.7,0.2c-0.2,0-0.5,0-0.7,0c-0.1,0-0.2,0-0.4-0.1v-1c0.2,0.1,0.4,0.1,0.5,0.2
	c0.2,0,0.4,0.1,0.6,0.1c0.2,0,0.4,0,0.5-0.1c0.2,0,0.3-0.1,0.5-0.2c0.1-0.1,0.2-0.3,0.3-0.5c0-0.1,0-0.1,0.1-0.2c0-0.1,0-0.2,0-0.3
	c0-0.1,0-0.2,0-0.3c0-0.1-0.1-0.2-0.1-0.4c-0.1-0.1-0.2-0.3-0.3-0.4c-0.1-0.1-0.3-0.3-0.6-0.4c-0.2-0.1-0.5-0.3-0.9-0.4
	c-0.2-0.1-0.3-0.1-0.5-0.2l-0.1,0v-1c0.3,0.1,0.7,0.2,1,0.3c0.3,0.1,0.6,0.3,0.8,0.5c0.3,0.2,0.5,0.4,0.7,0.6
	C142.4,73.1,142.5,73.2,142.5,73.3 M142.5,67.6v0.9l-2.4,0l0,0l2.5,1.7v0.5l-2.7-1.8v-1.2L142.5,67.6z M142.5,64.5
	c-0.1,0-0.2,0-0.4-0.1l-0.1,0.4l0.4,0.1V64.5z M142.5,62.3v1l-1.4-0.2c-0.1,0-0.2,0-0.2,0c-0.1,0-0.1,0-0.1,0.1c0,0,0,0.1,0,0.1
	l-0.2,1.2c0,0.1,0,0.2,0,0.3c0,0.1,0,0.1,0.1,0.2c0.1,0.1,0.1,0.1,0.3,0.2c0.1,0.1,0.3,0.1,0.5,0.2l-0.1,0.4l-1.3-0.5l0.7-3.8
	l0.3,0.1c0,0.1,0,0.3,0,0.3c0,0.1,0,0.2,0.1,0.2c0,0,0.1,0.1,0.2,0.1c0.1,0,0.2,0.1,0.3,0.1L142.5,62.3z M142.5,59.4l-0.8-0.1
	c-0.3,0-0.6-0.1-0.8-0.1c-0.2,0-0.4-0.1-0.5-0.2c-0.1-0.1-0.2-0.2-0.1-0.4c0-0.1,0-0.2,0.1-0.2c0.1-0.1,0.1-0.1,0.2-0.2
	c0.1-0.1,0.2-0.1,0.3-0.2c0.1-0.1,0.1-0.2,0.1-0.3c0-0.1,0-0.2-0.1-0.3c-0.1-0.1-0.1-0.1-0.2-0.1c-0.1,0-0.2,0-0.2,0
	c-0.1,0-0.2,0.1-0.2,0.2c-0.1,0.1-0.1,0.2-0.2,0.4c-0.1,0.2-0.1,0.4-0.1,0.6c0,0.2,0,0.5,0.1,0.6c0.1,0.2,0.1,0.3,0.2,0.4
	c0.1,0.1,0.2,0.2,0.4,0.3c0.1,0.1,0.3,0.1,0.4,0.2c0.2,0,0.3,0.1,0.5,0.1c0.1,0,0.3,0,0.4,0l0.7,0V59.4z M142.5,55.8v1l-0.6,0.2
	c-0.2,0.1-0.3,0.1-0.3,0.2c-0.1,0-0.1,0.1-0.2,0.2c0,0.1,0,0.1,0,0.2l-0.3,0l0-1.8l0.3,0c0,0.2,0,0.3,0.1,0.3c0,0.1,0.1,0.1,0.2,0.1
	c0,0,0.1,0,0.1,0c0.1,0,0.1,0,0.2,0L142.5,55.8z M142.5,53.4v0.4l-0.7-0.2c-0.1,0-0.2,0-0.2-0.1c-0.1,0-0.1,0-0.2,0
	c-0.1,0-0.1,0-0.2,0.1c0,0.1,0,0.2,0,0.3l-0.3,0l0-1.3l0.3,0c0,0.1,0,0.2,0,0.2c0,0.1,0.1,0.1,0.1,0.1c0.1,0,0.2,0.1,0.3,0.1
	L142.5,53.4z M142.5,49.8l-1.8,1.4l0.2,1.3l0.3-0.1c0-0.1,0-0.1,0-0.2c0-0.1,0-0.1,0-0.2c0-0.1,0.1-0.1,0.1-0.2
	c0.1-0.1,0.1-0.1,0.3-0.2l0.8-0.7V49.8z M142.5,48v1l-1.2,0.2c-0.1,0-0.3,0-0.3,0.1c-0.1,0-0.1,0.1-0.2,0.1c0,0-0.1,0.1-0.1,0.2
	c0,0.1,0,0.2,0,0.3l-0.3,0.1l-0.4-2.1l0.3-0.1c0,0.1,0.1,0.3,0.1,0.3c0,0.1,0.1,0.1,0.1,0.2c0.1,0,0.1,0,0.2,0c0.1,0,0.2,0,0.3,0
	L142.5,48z M142.5,42.9v0.4l-1.3,0l0.5,1.5l0.9-0.6v1.1l-1.7,1.2c-0.1,0.1-0.2,0.2-0.3,0.2c-0.1,0.1-0.1,0.1-0.1,0.2
	c0,0.1,0,0.1,0,0.2l-0.3,0.1l-0.3-1v-0.9l0.1,0c0,0.1,0.1,0.2,0.1,0.3c0.1,0,0.1,0.1,0.2,0c0,0,0.1,0,0.1-0.1c0,0,0.1-0.1,0.1-0.1
	l0.8-0.6l-0.5-1.8l-0.9,0l0,0v-0.4H142.5z M142.5,39.7c-0.1,0-0.1,0.1-0.2,0.1l0.2,0.3V39.7z M142.5,37.3V38c0,0,0,0-0.1,0
	c-0.1,0-0.2-0.1-0.3-0.1c-0.1,0-0.2,0-0.3,0.1c-0.1,0.1-0.2,0.1-0.3,0.2c-0.1,0.1-0.1,0.2-0.2,0.3c0,0.1-0.1,0.3-0.1,0.4
	c0,0.2-0.1,0.4-0.1,0.6c0,0.2-0.1,0.5-0.1,0.6c0,0.2-0.1,0.3-0.1,0.5c0,0.1-0.1,0.3-0.1,0.4c-0.1,0.1-0.2,0.3-0.3,0.4
	c-0.1,0.1-0.3,0.2-0.5,0.3c0,0-0.1,0-0.1,0.1v-1.2c0-0.1,0.1-0.1,0.1-0.2c0.1-0.1,0.1-0.3,0.1-0.5c0-0.2,0.1-0.4,0.1-0.6
	c0-0.3,0.1-0.5,0.1-0.7c0-0.2,0.1-0.4,0.2-0.6c0.1-0.2,0.2-0.3,0.3-0.4c0.1-0.1,0.3-0.2,0.5-0.3c0.1-0.1,0.2-0.1,0.4-0.1
	c0.1,0,0.3,0,0.4,0C142.2,37.2,142.3,37.2,142.5,37.3C142.5,37.3,142.5,37.3,142.5,37.3 M142.5,40.1v-0.4c0.1-0.1,0.2-0.1,0.2-0.2
	c0.1-0.1,0.2-0.2,0.2-0.3c0-0.1,0.1-0.2,0-0.3c0-0.1-0.1-0.3-0.1-0.4c-0.1-0.1-0.1-0.2-0.2-0.3c-0.1-0.1-0.1-0.1-0.2-0.2v-0.6
	c0.1,0.1,0.3,0.2,0.4,0.3c0.1,0.2,0.3,0.4,0.4,0.6c0.1,0.2,0.2,0.4,0.2,0.6c0.1,0.2,0.1,0.4,0.1,0.6c-0.1,0.1-0.2,0.1-0.3,0.2
	c-0.1,0.1-0.2,0.1-0.4,0.2C142.8,40,142.7,40.1,142.5,40.1L142.5,40.1z M142.5,70.8v-0.5l0.9,0.6c0.1,0,0.1,0.1,0.2,0.1
	c0.1,0,0.1,0,0.1,0.1c0.1,0,0.1,0,0.2,0c0,0,0.1-0.1,0.1-0.1c0-0.1,0.1-0.1,0.1-0.2l0.3,0.1l-0.4,1.3l-0.3-0.1c0-0.1,0-0.2,0-0.2
	c0-0.1,0-0.1-0.1-0.2c-0.1-0.1-0.1-0.1-0.2-0.2L142.5,70.8z M142.5,75.6v-2.3c0.1,0.1,0.2,0.3,0.2,0.4c0.1,0.3,0.1,0.5,0.1,0.8
	c0,0.3-0.1,0.6-0.2,0.9C142.6,75.5,142.6,75.5,142.5,75.6 M144.7,67.6v1.5l-0.1,0c0-0.1,0.1-0.3,0-0.3c0-0.1-0.1-0.1-0.1-0.1
	c0,0-0.1,0-0.2,0c-0.1,0-0.1,0-0.2,0l-1.6,0v-0.9l1.9-0.1C144.5,67.6,144.6,67.6,144.7,67.6 M144.7,65.5v0.4l-0.2,0l0.1-0.4
	L144.7,65.5z M144.7,62.7v1l-1.1-0.2l-0.1,0.8c0,0.1,0,0.2,0,0.2c0,0.1,0,0.1,0.1,0.1c0,0,0.1,0.1,0.2,0.1c0.1,0,0.2,0.1,0.4,0.1
	l-0.1,0.4l-1.6-0.3v-0.4c0,0,0.1,0,0.1,0c0.1,0,0.2,0,0.3,0c0.1,0,0.1-0.1,0.1-0.1c0-0.1,0-0.1,0.1-0.2l0.1-0.8l-0.7-0.1v-1
	L144.7,62.7z M144.7,59.5v1l-2.1-0.1v-1L144.7,59.5z M144.7,54v0.4l-1.5-0.4l0,1.6l1.5-0.5V56l-2.1,0.8v-1l0.3-0.1l0-1.8l-0.2-0.1
	v-0.4L144.7,54z M144.7,47.6v1l-1.3,0.2l0.1,0.4c0,0.2,0.1,0.4,0.1,0.5c0.1,0.2,0.2,0.3,0.3,0.4c0.1,0.1,0.3,0.2,0.4,0.2
	c0.1,0,0.2,0,0.3,0v1l-0.1,0c-0.2,0-0.3-0.1-0.5-0.2c-0.2-0.1-0.3-0.2-0.4-0.4c-0.1-0.1-0.2-0.3-0.3-0.5l-0.9,0.7v-1.1l0.6-0.5
	l-0.1-0.5l-0.5,0.1v-1L144.7,47.6z M144.7,42.9v0.9l-2.1,1.5v-1.1l1.3-0.9l0,0l-1.3,0v-0.4H144.7z M144.7,43.8v-0.9h0.3l0.2,0.5
	L144.7,43.8z M144.7,51.3v-1c0.1,0,0.2,0,0.3,0c0.2,0,0.3-0.1,0.5-0.2c0.1-0.1,0.2-0.2,0.3-0.3c0.1-0.1,0.1-0.2,0.1-0.4
	c0-0.1,0-0.3,0-0.5l-0.1-0.4c0-0.1,0-0.1-0.1-0.1c0,0-0.1,0-0.2,0c-0.1,0-0.2,0-0.3,0l-0.6,0.1v-1l0.4-0.1c0.1,0,0.3,0,0.3-0.1
	c0.1,0,0.1-0.1,0.2-0.1c0,0,0.1-0.1,0.1-0.2c0-0.1,0-0.2,0-0.3l0.3-0.1l0.4,2.1c0,0.2,0.1,0.5,0.1,0.7c0,0.2,0,0.4,0,0.5
	c0,0.2-0.1,0.3-0.1,0.5c-0.1,0.2-0.2,0.4-0.4,0.5c-0.2,0.1-0.4,0.2-0.6,0.3C145,51.3,144.8,51.3,144.7,51.3 M144.7,56v-0.9l1.1-0.4
	l0,0l-1.1-0.3V54l2.3,0.6l0,0.6L144.7,56z M144.7,60.5v-1l1.1,0.1c0.1,0,0.3,0,0.4,0c0.1,0,0.2,0,0.2-0.1c0,0,0.1-0.1,0.1-0.2
	c0-0.1,0-0.2,0-0.4l0.3,0l-0.2,2.2l-0.3,0c0-0.1,0-0.3,0-0.3c0-0.1,0-0.1-0.1-0.2c0,0-0.1-0.1-0.2-0.1c-0.1,0-0.2,0-0.3,0
	L144.7,60.5z M144.7,65.9v-0.4c0.2,0,0.3,0,0.4,0c0.1,0,0.2,0,0.3-0.1c0.1,0,0.1-0.1,0.1-0.2c0-0.1,0.1-0.2,0.1-0.3l0.2-0.9
	c0-0.1,0-0.1,0-0.2c0,0,0-0.1-0.1-0.1c-0.1,0-0.1,0-0.2-0.1l-0.8-0.1v-1l0.7,0.1c0.1,0,0.3,0,0.3,0c0.1,0,0.2,0,0.2,0
	c0,0,0.1-0.1,0.1-0.2c0-0.1,0.1-0.2,0.1-0.3l0.3,0.1l-0.6,3.6L144.7,65.9z M144.7,69.1v-1.5c0,0,0.1,0,0.1,0c0.1,0,0.1,0,0.2-0.1
	c0,0,0.1-0.1,0.1-0.1c0,0,0.1-0.1,0.1-0.2l0.3,0.1l-0.6,1.8L144.7,69.1z"/>
<path class="st2" d="M89.1,65.6l-3.9,7l3.9,0V65.6z M89.1,55.1v6.8l-6.3,10.6l-3.8,0l0,0h-6.9L89.1,55.1z M89.1,49.2v3.6L69.9,71.6
	c-1.4-2.9-2.4-6-2.9-9.2L89.1,49.2z M89.1,45l-22.4,6.3c-0.2,1.6-0.3,3.2-0.3,4.9c0,1.3,0.1,2.6,0.2,3.8l22.5-12.6V45z M89.1,41.4v2
	l-22,5.6c0.5-2.6,1.3-5,2.4-7.4L89.1,41.4z M89.1,37.9v2l-18.7-0.2c1-2,2.3-3.9,3.6-5.6L89.1,37.9z M89.1,33.9l-9.6-5.4
	c-1.5,1.2-2.8,2.6-4.1,4l13.7,3.9V33.9z M89.1,22.8c-0.8,0.3-1.6,0.7-2.3,1l2.3,2.4V22.8z M89.1,32.1L81,27.3c1.3-1,2.7-1.9,4.1-2.6
	l4,3.9V32.1z M89.1,47.5l3.1-1.7h-2.3v-1L89.1,45V47.5z M95.4,54.3v9.4H94v4.5h-3.4v4.4l-1.6,0v-7L95.4,54.3z M95.4,48.7l-6.3,6.5
	v6.8l6.3-10.6V48.7z M95.4,45.8v0.9l-6.3,6.1v-3.6l5.9-3.5H95.4z M95.4,43.2l-0.2,0L95.4,43.2L95.4,43.2z M95.4,41.3v0.5l-6.3,1.6
	v-2L95.4,41.3z M95.4,39.5V40l-6.3-0.1v-2L95.4,39.5z M95.4,37.4l-6.3-3.5v2.5l6.3,1.8V37.4z M95.4,30l-4.7-7.8
	c-0.6,0.2-1.1,0.4-1.6,0.6v3.4l6.3,6.5V30z M95.4,20.9V27l-3-5.4C93.4,21.4,94.4,21.1,95.4,20.9 M95.4,35.8l-6.3-3.7v-3.6l6.3,6.1
	V35.8z M95.4,38.1l1.7,0.5c0-0.1,0.1-0.1,0.1-0.2l-1.8-1V38.1z M95.4,40v-0.5l0.9,0.2c-0.1,0.1-0.1,0.2-0.2,0.3L95.4,40z M95.4,41.9
	v-0.5l0.3,0c0,0.2-0.1,0.3-0.1,0.5L95.4,41.9z M95.4,43.3L95.4,43.3l0.2-0.1l0,0.1H95.4z M95.4,46.7v-0.9h0.2l0,0.8L95.4,46.7z
	 M95.4,51.3v-2.7l0.2-0.2l0,2.6L95.4,51.3z M95.4,63.7v-9.4l0.2-0.3l0,9.7H95.4z M98.1,34.5L95.4,30v2.7l2.7,2.8V34.5z M98.1,27.5
	l-1.9-6.7c-0.3,0-0.5,0.1-0.8,0.1V27l2.7,4.8V27.5z M98.1,20.5v0.9l-0.2-0.8L98.1,20.5z M98.1,37.4l-2.7-1.6v-1.2l2.7,2.6V37.4z
	 M98.1,21.4l3.7,14.5l-0.2-15.6c-1.2,0-2.3,0.1-3.5,0.2V21.4z M98.1,31.8l2.5,4.4l-2.5-8.7V31.8z M98.1,35.4v-0.9l1.3,2.3L98.1,35.4
	z M105.6,36.4v0.2l-0.1,0.1l0,0L105.6,36.4z M105.6,31.4l-1.3,4.7l1.3-2.4V31.4z M105.6,20.4v5.4l-2.6,10.1l0.2-15.6
	C104.1,20.3,104.8,20.3,105.6,20.4 M98.3,37.5L98.3,37.5l-0.2,0v-0.2L98.3,37.5z M106.8,37.2v0.2c0,0-0.1,0-0.1-0.1L106.8,37.2z
	 M106.8,34.4v0.9l-1.2,1.2v-0.2L106.8,34.4z M106.8,27.1v4.5l-1.2,2.2v-2.4L106.8,27.1z M106.8,20.5V21l-1.2,4.8v-5.4
	C106,20.4,106.4,20.4,106.8,20.5 M106.8,21l0.1-0.5l-0.1,0V21z M110.2,55.7v8h-0.4c0-3.2,0-6.1,0-8.7L110.2,55.7z M110.2,49.5v3.1
	l-0.4-0.7l0-2.9L110.2,49.5z M110.2,46v1.5l-0.4-0.4l0-1.3h0.1L110.2,46z M110.2,41.3V42l-0.4-0.1c0-0.2-0.1-0.4-0.1-0.6L110.2,41.3
	z M110.2,39.3V40l-1,0c-0.1-0.1-0.1-0.3-0.2-0.4L110.2,39.3z M110.2,37l-2.2,1.3c0.1,0.1,0.1,0.1,0.2,0.2l2-0.6V37z M110.2,33.9v1.5
	l-3.3,2l0,0v-0.2L110.2,33.9z M110.2,28.7l-3.3,5.6v0.9l3.3-3.4V28.7z M110.2,21.1v4.6l-3.3,6v-4.5l1.8-6.3
	C109.2,20.9,109.7,21,110.2,21.1 M110.2,25.6l2.2-4c-0.7-0.2-1.5-0.4-2.2-0.6V25.6z M116.2,66.3l-6-10.7v8h1v4.5h3.5v4.4l1.5,0V66.3
	z M116.2,55.6v7.1l-6-10.1v-3.1L116.2,55.6z M116.2,49.5l-6-3.5v1.5l6,5.8V49.5z M116.2,45.1v2.6l-3.5-2h2.8v-0.8L116.2,45.1z
	 M116.2,41.4v2.2l-0.7-0.2v-0.1H115l-4.8-1.2v-0.7L116.2,41.4z M116.2,37.8l-6,1.5V40l6-0.1V37.8z M116.2,33.6v2.6l-6,1.7V37
	L116.2,33.6z M116.2,28.1l-6,5.8v1.5l6-3.6V28.1z M116.2,22.9v2.8l-6,6.1v-3.1l3.9-6.6C114.8,22.4,115.5,22.7,116.2,22.9
	 M116.2,25.8v-2.8c0.6,0.3,1.3,0.6,1.9,0.9L116.2,25.8z M116.2,31.8l7.7-4.6c-1.3-1-2.7-1.9-4.1-2.6l-3.5,3.4V31.8z M116.2,72.6
	v-6.2l3.5,6.2L116.2,72.6z M125.2,64.8l-9-9.3v7.1l5.9,9.9l3.1,0V64.8z M125.2,54.9v7.2l-9-8.8v-3.8L125.2,54.9z M125.2,47.7l-9-2.5
	v2.6l9,5.1V47.7z M125.2,41.5v4.3l-9-2.3v-2.2L125.2,41.5z M125.2,35.5l-9,2.3v2.2l9-0.1V35.5z M125.2,28.6v5.1l-9,2.5v-2.6
	L125.2,28.6z M125.2,33.7v-5.1l0.2-0.1c1.5,1.2,2.8,2.6,4.1,4L125.2,33.7z M125.2,39.8v-4.3l5.6-1.4c1.4,1.8,2.6,3.6,3.6,5.6
	L125.2,39.8z M125.2,45.9l12.5,3.2c-0.5-2.6-1.3-5-2.4-7.4l-10.2-0.1V45.9z M125.2,52.8v-5.1l12.9,3.6c0.2,1.6,0.3,3.2,0.3,4.9
	c0,1.3-0.1,2.6-0.2,3.9L125.2,52.8z M125.2,62.1l9.8,9.5c1.4-2.9,2.4-6,2.9-9.2l-12.7-7.5V62.1z M125.2,72.6v-7.7l7.5,7.7H126l0,0
	L125.2,72.6z"/>
<path class="st2" d="M100.7,66.3v0.3c0,0-0.1,0-0.1,0c0,0-0.1,0-0.1,0.1c-0.1,0-0.1,0.1-0.1,0.1c0,0.1-0.1,0.2-0.1,0.3
	c0,0.1-0.1,0.3-0.1,0.5c0,0.2,0,0.4,0,0.7c0,0.3,0,0.5,0,0.7c0,0.2,0,0.3,0.1,0.5c0,0.1,0.1,0.2,0.1,0.3c0.1,0.1,0.1,0.2,0.2,0.2
	c0.1,0,0.1,0.1,0.2,0.1v0.3c-0.1,0-0.2,0-0.4,0c-0.1,0-0.2-0.1-0.3-0.1c-0.1-0.1-0.2-0.1-0.3-0.2c-0.2-0.2-0.3-0.4-0.3-0.6
	c-0.1-0.3-0.1-0.6-0.1-0.9c0-0.4,0-0.7,0.1-0.9c0.1-0.3,0.2-0.5,0.4-0.6c0.1-0.1,0.2-0.2,0.4-0.2C100.3,66.3,100.5,66.3,100.7,66.3
	 M98.3,69c0,0.1-0.1,0.2-0.1,0.3c0,0.1-0.1,0.1-0.1,0.2c0,0-0.1,0.1-0.1,0.1c-0.1,0-0.1,0-0.2,0h-1.3c0-0.1,0.1-0.2,0.2-0.4
	c0.1-0.1,0.1-0.2,0.2-0.3c0.1-0.1,0.2-0.2,0.3-0.2c0.1-0.1,0.2-0.1,0.3-0.2c0.1-0.1,0.2-0.1,0.3-0.2c0.1-0.1,0.2-0.1,0.3-0.2
	c0.1-0.1,0.2-0.1,0.2-0.2c0.1-0.1,0.1-0.2,0.2-0.3c0-0.1,0.1-0.2,0.1-0.3c0-0.1,0-0.2-0.1-0.3c0-0.1-0.1-0.2-0.2-0.3
	c-0.1-0.1-0.2-0.2-0.4-0.2c-0.2-0.1-0.4-0.1-0.6-0.1c-0.2,0-0.4,0-0.5,0.1c-0.2,0-0.3,0.1-0.4,0.2c-0.1,0.1-0.2,0.2-0.2,0.2
	C96.1,66.9,96,67,96,67c0,0.1,0,0.2,0.1,0.2c0,0.1,0.1,0.1,0.2,0.1c0.1,0,0.1,0,0.2,0c0,0,0.1,0,0.1-0.1c0,0,0.1-0.1,0.1-0.2
	c0-0.1,0.1-0.2,0.1-0.3c0-0.1,0.1-0.1,0.1-0.2c0,0,0.1-0.1,0.2-0.1c0.1,0,0.1,0,0.2,0c0.1,0,0.1,0,0.2,0c0.1,0,0.1,0,0.2,0.1
	c0,0,0.1,0.1,0.1,0.2c0,0.1,0,0.2,0,0.3c0,0.1,0,0.2-0.1,0.3c0,0.1-0.1,0.2-0.2,0.3c-0.1,0.1-0.2,0.2-0.3,0.3
	c-0.1,0.1-0.2,0.2-0.3,0.3c-0.1,0.1-0.2,0.2-0.3,0.3c-0.1,0.1-0.2,0.2-0.2,0.4c-0.1,0.1-0.1,0.3-0.2,0.4C96,69.6,96,69.8,95.9,70
	l0.1,0.1h2.4l0.2-1L98.3,69z M100.7,70.2v-0.3c0.1,0,0.2,0,0.2-0.1c0.1,0,0.1-0.1,0.2-0.2c0-0.1,0.1-0.2,0.1-0.3
	c0-0.1,0.1-0.3,0.1-0.5c0-0.2,0-0.4,0-0.7c0-0.3,0-0.5,0-0.7c0-0.2,0-0.4-0.1-0.5c0-0.1-0.1-0.2-0.1-0.3c-0.1-0.1-0.1-0.1-0.2-0.2
	c-0.1,0-0.1,0-0.2,0v-0.3c0.3,0,0.6,0.1,0.8,0.2c0.2,0.1,0.4,0.3,0.5,0.6c0.1,0.3,0.2,0.7,0.2,1.1c0,0.4,0,0.7-0.1,0.9
	c-0.1,0.3-0.2,0.5-0.3,0.6c-0.1,0.1-0.3,0.2-0.4,0.3C101.1,70.1,100.9,70.2,100.7,70.2 M104.1,66.3v0.3c0,0-0.1,0-0.1,0
	c0,0-0.1,0-0.1,0.1c-0.1,0-0.1,0.1-0.1,0.1c0,0.1-0.1,0.2-0.1,0.3c0,0.1-0.1,0.3-0.1,0.5c0,0.2,0,0.4,0,0.7c0,0.3,0,0.5,0,0.7
	c0,0.2,0,0.3,0.1,0.5c0,0.1,0.1,0.2,0.1,0.3c0.1,0.1,0.1,0.2,0.2,0.2c0.1,0,0.1,0.1,0.2,0.1v0.3c-0.1,0-0.2,0-0.4,0
	c-0.1,0-0.2-0.1-0.3-0.1c-0.1-0.1-0.2-0.1-0.3-0.2c-0.2-0.2-0.3-0.4-0.3-0.6c-0.1-0.3-0.1-0.6-0.1-0.9c0-0.4,0-0.7,0.1-0.9
	c0.1-0.3,0.2-0.5,0.4-0.6c0.1-0.1,0.2-0.2,0.4-0.2C103.7,66.3,103.9,66.3,104.1,66.3 M104.1,70.2v-0.3c0.1,0,0.2,0,0.2-0.1
	c0.1,0,0.1-0.1,0.2-0.2c0-0.1,0.1-0.2,0.1-0.3c0-0.1,0.1-0.3,0.1-0.5c0-0.2,0-0.4,0-0.7c0-0.3,0-0.5,0-0.7c0-0.2,0-0.4-0.1-0.5
	c0-0.1-0.1-0.2-0.1-0.3c-0.1-0.1-0.1-0.1-0.2-0.2c-0.1,0-0.1,0-0.2,0v-0.3c0.3,0,0.6,0.1,0.8,0.2c0.2,0.1,0.4,0.3,0.5,0.6
	c0.1,0.3,0.2,0.7,0.2,1.1c0,0.4,0,0.7-0.1,0.9c-0.1,0.3-0.2,0.5-0.3,0.6c-0.1,0.1-0.3,0.2-0.4,0.3C104.5,70.1,104.4,70.2,104.1,70.2
	 M107.1,67.3v0.6l-0.5,0.9h0.5v0.3h-1v-0.2L107.1,67.3z M107.1,69.1v-0.3h0.5v-1.4c0,0,0-0.1,0-0.1c0,0,0-0.1,0-0.2c0,0,0-0.1,0-0.1
	h0c0,0,0,0.1-0.1,0.1c0,0-0.1,0.1-0.1,0.2c0,0.1-0.1,0.1-0.1,0.2l-0.3,0.4v-0.6l0.6-1h0.7v2.5h0.5l0,0.3h-0.4v0.3c0,0.1,0,0.2,0,0.2
	c0,0.1,0,0.1,0,0.1c0,0,0.1,0.1,0.1,0.1c0.1,0,0.1,0,0.2,0v0.2h-1.6v-0.2c0.1,0,0.2,0,0.2,0c0.1,0,0.1,0,0.1-0.1c0,0,0-0.1,0.1-0.1
	c0-0.1,0-0.1,0-0.2v-0.3H107.1z"/>
<path class="st3" d="M50,85.6"/>
<path class="st2" d="M189.1,152.6c0,1-0.1,1.1-1.2,1.1v0.5h4v-0.5c-1.1,0-1.2-0.1-1.2-1.1v-6.8c0-1,0.1-1.1,1.2-1.1v-0.6h-4v0.6
	c1.1,0,1.2,0.1,1.2,1.1V152.6z M190,142c-0.4,0-0.7,0.3-0.7,0.7c0,0.4,0.3,0.7,0.7,0.7c0.4,0,0.7-0.3,0.7-0.7
	C190.7,142.3,190.4,142,190,142L190,142z M180.4,151.8c0.2,0.6,0.3,1.3,0.4,2.2c0.7,0.2,1.6,0.4,2.4,0.4c2.2,0,3.4-1.3,3.4-2.8
	c0-0.7-0.2-1.3-0.6-1.7c-0.4-0.5-1-0.9-2.1-1.7c-1.3-0.9-1.8-1.3-1.8-2.2c0-0.9,0.7-1.4,1.6-1.4c1.2,0,1.5,0.5,1.8,1.9l0.7-0.1
	c-0.1-0.8-0.2-1.6-0.3-2.1c-0.6-0.2-1.3-0.4-2.2-0.4c-2.3,0-3.1,1.4-3.1,2.5c0,1.5,0.9,2.1,2.4,3.1c1.3,0.9,2,1.4,2,2.5
	c0,1.1-0.9,1.7-1.8,1.7c-1.1,0-1.8-0.4-2.2-2.1L180.4,151.8z M179.3,151.9h-0.7c-0.4,1.5-0.5,1.7-1.3,1.7h-2c-0.3,0-0.4-0.1-0.4-0.6
	v-3.6h1.5c0.6,0,0.7,0.1,0.7,1.4h0.7v-3.5h-0.7c0,1.2-0.1,1.4-0.7,1.4h-1.5v-3.2c0-0.5,0-0.6,0.5-0.6h1.6c0.8,0,0.9,0.1,1.3,1.6h0.7
	l-0.4-2.2h-6.3v0.6c1,0,1.1,0.1,1.1,1.1v6.8c0,1-0.1,1.1-1.1,1.1v0.5h6.7L179.3,151.9z M169.2,144.8c0.8,0,0.9,0.1,1.2,1.7h0.7
	l-0.3-2.4h-7.4l-0.3,2.4h0.7c0.3-1.7,0.4-1.7,1.2-1.7h1.3v7.7c0,1-0.1,1.1-1.2,1.1v0.5h4.2v-0.5c-1.2,0-1.3-0.1-1.3-1.1v-7.7H169.2z
	 M159.3,152.6c0,1-0.1,1.1-1.2,1.1v0.5h4v-0.5c-1.1,0-1.2-0.1-1.2-1.1v-6.8c0-1,0.1-1.1,1.2-1.1v-0.6h-4v0.6c1.1,0,1.2,0.1,1.2,1.1
	V152.6z M160.1,142c-0.4,0-0.7,0.3-0.7,0.7c0,0.4,0.3,0.7,0.7,0.7c0.4,0,0.7-0.3,0.7-0.7C160.9,142.3,160.6,142,160.1,142L160.1,142
	z M150.6,151.8c0.2,0.6,0.3,1.3,0.4,2.2c0.7,0.2,1.6,0.4,2.4,0.4c2.2,0,3.4-1.3,3.4-2.8c0-0.7-0.2-1.3-0.6-1.7
	c-0.4-0.5-1-0.9-2.1-1.7c-1.3-0.9-1.8-1.3-1.8-2.2c0-0.9,0.7-1.4,1.6-1.4c1.2,0,1.5,0.5,1.8,1.9l0.7-0.1c-0.1-0.8-0.2-1.6-0.3-2.1
	c-0.6-0.2-1.3-0.4-2.2-0.4c-2.3,0-3.1,1.4-3.1,2.5c0,1.5,0.9,2.1,2.4,3.1c1.3,0.9,2,1.4,2,2.5c0,1.1-0.9,1.7-1.8,1.7
	c-1.1,0-1.8-0.4-2.2-2.1L150.6,151.8z M145.1,144.8c0.7,0,1.2,0.2,1.5,0.5c0.4,0.4,0.6,0.9,0.6,1.5c0,1.7-1,2.2-2.3,2.2H144v-3.3
	c0-0.7,0-0.9,0.4-0.9H145.1z M141.3,144.1v0.6c1,0,1.1,0.1,1.1,1.1v6.8c0,1-0.1,1.1-1.1,1.1v0.5h3.8v-0.5c-0.9,0-1-0.1-1-1.1v-2.9
	h0.9l2.5,4.6h2.3v-0.5c-0.6,0-0.8-0.1-1.3-1l-1.9-3.3c1.5-0.3,2.3-1.4,2.3-2.6c0-0.9-0.4-1.6-1-2c-0.7-0.5-1.5-0.7-2.8-0.7H141.3z
	 M140.1,151.9h-0.7c-0.4,1.5-0.5,1.7-1.3,1.7h-2c-0.3,0-0.4-0.1-0.4-0.6v-3.6h1.5c0.6,0,0.7,0.1,0.7,1.4h0.7v-3.5h-0.7
	c0,1.2-0.1,1.4-0.7,1.4h-1.5v-3.2c0-0.5,0-0.6,0.5-0.6h1.6c0.8,0,0.9,0.1,1.3,1.6h0.7l-0.4-2.2H133v0.6c1,0,1.1,0.1,1.1,1.1v6.8
	c0,1-0.1,1.1-1.1,1.1v0.5h6.7L140.1,151.9z M128.1,152.4l-2.2-6.7c-0.1-0.3-0.1-0.5-0.1-0.6c0-0.3,0.2-0.4,0.7-0.4v-0.6h-3.3v0.6
	c0.6,0,0.7,0.1,1,1l3,8.8h1.1l2.8-9c0.2-0.7,0.3-0.8,0.9-0.8v-0.6h-2.3v0.6c0.5,0,0.7,0.1,0.7,0.4c0,0.1,0,0.4-0.1,0.6L128.1,152.4
	L128.1,152.4z M119.4,152.6c0,1-0.1,1.1-1.2,1.1v0.5h4v-0.5c-1.1,0-1.2-0.1-1.2-1.1v-6.8c0-1,0.1-1.1,1.2-1.1v-0.6h-4v0.6
	c1.1,0,1.2,0.1,1.2,1.1V152.6z M120.3,142c-0.4,0-0.7,0.3-0.7,0.7c0,0.4,0.3,0.7,0.7,0.7c0.4,0,0.7-0.3,0.7-0.7
	C121,142.3,120.7,142,120.3,142L120.3,142z M108.2,144.1v0.6c1,0,1.1,0.1,1.1,1.1v6.8c0,1-0.1,1.1-1,1.1v0.5h2.8v-0.5
	c-0.9,0-1-0.1-1-1.1v-6.9h0l4.8,8.7h1.2v-8.6c0-1,0.1-1.1,1-1.1v-0.6h-2.8v0.6c0.9,0,1.1,0.1,1.1,1.1v6.3h0l-4.4-8H108.2z
	 M101,145.8c0-1,0.1-1.1,1-1.1v-0.6h-3.6v0.6c0.9,0,1,0.1,1,1.1v5c0,1.8,0.3,3.6,3.5,3.6c1.1,0,1.8-0.3,2.4-0.9
	c0.6-0.6,0.8-1.5,0.8-2.7v-5.1c0-1,0.1-1.1,0.9-1.1v-0.6h-2.7v0.6c0.9,0,1,0.1,1,1.1v5c0,1-0.1,2.8-2.1,2.8c-2,0-2.1-1.7-2.1-2.9
	V145.8z M104.5,141.7c-0.4,0-0.8,0.3-0.8,0.8c0,0.4,0.3,0.8,0.8,0.8c0.4,0,0.8-0.4,0.8-0.8C105.2,142.1,104.9,141.7,104.5,141.7
	 M101.4,141.7c-0.4,0-0.8,0.3-0.8,0.8c0,0.4,0.4,0.8,0.8,0.8c0.4,0,0.8-0.4,0.8-0.8C102.2,142.1,101.9,141.7,101.4,141.7
	 M87.1,150.5l1.3-4.4h0l1.4,4.4H87.1z M90.7,152.8c0.1,0.2,0.1,0.4,0.1,0.5c0,0.3-0.2,0.4-0.7,0.4v0.5h3.2v-0.5
	c-0.5,0-0.6-0.1-0.9-1l-3-8.8h-1l-2.8,9c-0.2,0.6-0.4,0.8-0.8,0.8v0.5H87v-0.5c-0.5,0-0.7-0.1-0.7-0.4c0-0.1,0.1-0.4,0.1-0.7
	l0.4-1.5h3.2L90.7,152.8z M75,144.1v0.6c1,0,1.1,0.1,1.1,1.1v6.8c0,1-0.1,1.1-1,1.1v0.5h2.8v-0.5c-0.9,0-1-0.1-1-1.1v-6.9h0l4.8,8.7
	h1.2v-8.6c0-1,0.1-1.1,1-1.1v-0.6H81v0.6c0.9,0,1.1,0.1,1.1,1.1v6.3h0l-4.4-8H75z M67.5,151.8c0.2,0.6,0.3,1.3,0.4,2.2
	c0.7,0.2,1.6,0.4,2.4,0.4c2.2,0,3.4-1.3,3.4-2.8c0-0.7-0.2-1.3-0.6-1.7c-0.4-0.5-1-0.9-2.1-1.7c-1.3-0.9-1.8-1.3-1.8-2.2
	c0-0.9,0.7-1.4,1.6-1.4c1.2,0,1.5,0.5,1.8,1.9l0.7-0.1c-0.1-0.8-0.2-1.6-0.3-2.1c-0.6-0.2-1.3-0.4-2.2-0.4c-2.3,0-3.1,1.4-3.1,2.5
	c0,1.5,0.9,2.1,2.4,3.1c1.3,0.9,2,1.4,2,2.5c0,1.1-0.9,1.7-1.8,1.7c-1.1,0-1.8-0.4-2.2-2.1L67.5,151.8z M61.7,144.6
	c2.3,0,2.6,2.6,2.6,4.6c0,1.6-0.3,2.9-0.8,3.7c-0.4,0.6-1.1,0.9-1.8,0.9c-2.3,0-2.6-2.8-2.6-4.6c0-2,0.3-3.1,0.8-3.8
	C60.6,144.6,61.3,144.6,61.7,144.6 M61.7,154.5c3.4,0,4.3-2.6,4.3-5.3c0-2.5-0.9-5.3-4.3-5.3c-3.2,0-4.3,2.4-4.3,5.3
	C57.4,152.3,58.6,154.5,61.7,154.5 M51.9,149.3c1.7,0,2.2,1,2.2,2c0,1.1-0.3,2.2-1.8,2.2h-0.8c-0.4,0-0.5-0.1-0.5-0.7v-3.6H51.9z
	 M52.1,144.8c1,0,1.7,0.5,1.7,1.8c0,1.7-1.1,2-2,2H51v-3.3c0-0.4,0-0.5,0.4-0.5H52.1z M49.4,152.6c0,1-0.1,1.1-1.1,1.1v0.5h4
	c1.5,0,2.3-0.3,2.8-0.8c0.5-0.5,0.8-1.2,0.8-2c0-1.5-1.1-2.4-3.1-2.5v0c2.2-0.3,2.7-1.5,2.7-2.5c0-0.7-0.3-1.3-0.9-1.7
	c-0.7-0.5-1.5-0.6-2.8-0.6h-3.5v0.6c1,0,1.1,0.1,1.1,1.1V152.6z M42.3,152.6c0,1-0.1,1.1-1.2,1.1v0.5h4.1v-0.5
	c-1.1,0-1.2-0.1-1.2-1.1v-2.8l2.3-4.3c0.4-0.7,0.5-0.8,1-0.8v-0.6H45v0.6c0.4,0,0.6,0.1,0.6,0.3c0,0.1-0.1,0.4-0.2,0.7l-1.7,3.3h0
	l-1.8-3.3c-0.1-0.3-0.2-0.5-0.2-0.6c0-0.2,0.2-0.3,0.8-0.3v-0.6h-3.4v0.6c0.5,0,0.7,0.1,1.1,0.9l2.3,4.2V152.6z M32.6,150.5l1.3-4.4
	h0l1.4,4.4H32.6z M36.1,152.8c0.1,0.2,0.1,0.4,0.1,0.5c0,0.3-0.2,0.4-0.7,0.4v0.5h3.2v-0.5c-0.5,0-0.6-0.1-0.9-1l-3-8.8h-1l-2.8,9
	c-0.2,0.6-0.4,0.8-0.8,0.8v0.5h2.3v-0.5c-0.5,0-0.7-0.1-0.7-0.4c0-0.1,0.1-0.4,0.1-0.7l0.4-1.5h3.2L36.1,152.8z M24.9,144.8
	c0.7,0,1.2,0.2,1.5,0.5c0.4,0.4,0.6,0.9,0.6,1.5c0,1.7-1,2.2-2.3,2.2h-0.8v-3.3c0-0.7,0-0.9,0.4-0.9H24.9z M21.1,144.1v0.6
	c1,0,1.1,0.1,1.1,1.1v6.8c0,1-0.1,1.1-1.1,1.1v0.5h3.8v-0.5c-0.9,0-1-0.1-1-1.1v-2.9h0.9l2.5,4.6h2.3v-0.5c-0.6,0-0.8-0.1-1.3-1
	l-1.9-3.3c1.5-0.3,2.3-1.4,2.3-2.6c0-0.9-0.4-1.6-1-2c-0.7-0.5-1.5-0.7-2.8-0.7H21.1z M14,150.5l1.3-4.4h0l1.4,4.4H14z M17.5,152.8
	c0.1,0.2,0.1,0.4,0.1,0.5c0,0.3-0.2,0.4-0.7,0.4v0.5h3.2v-0.5c-0.5,0-0.6-0.1-0.9-1l-3-8.8h-1l-2.8,9c-0.2,0.6-0.4,0.8-0.8,0.8v0.5
	h2.3v-0.5c-0.5,0-0.7-0.1-0.7-0.4c0-0.1,0.1-0.4,0.1-0.7l0.4-1.5H17L17.5,152.8z M4.3,151.8c0.2,0.6,0.3,1.3,0.4,2.2
	c0.7,0.2,1.6,0.4,2.4,0.4c2.2,0,3.4-1.3,3.4-2.8c0-0.7-0.2-1.3-0.6-1.7c-0.4-0.5-1-0.9-2.1-1.7C6.5,147.3,6,146.9,6,146
	c0-0.9,0.7-1.4,1.6-1.4c1.2,0,1.5,0.5,1.8,1.9l0.7-0.1c-0.1-0.8-0.2-1.6-0.3-2.1c-0.6-0.2-1.3-0.4-2.2-0.4c-2.3,0-3.1,1.4-3.1,2.5
	c0,1.5,0.9,2.1,2.4,3.1c1.3,0.9,2,1.4,2,2.5c0,1.1-0.9,1.7-1.8,1.7c-1.1,0-1.8-0.4-2.2-2.1L4.3,151.8z"/>
<path class="st2" d="M183.7,135.8h7.3v-1c-2,0-2.1-0.2-2.1-2.1v-12.4c0-1.8,0.2-2,2.1-2v-1h-7.3v1c2,0,2.1,0.2,2.1,2v12.4
	c0,1.8-0.1,2.1-2.1,2.1V135.8z M169.9,131.3c0.3,1.2,0.6,2.5,0.7,4.1c1.3,0.4,2.9,0.8,4.4,0.8c4.1,0,6.3-2.4,6.3-5.2
	c0-1.3-0.4-2.3-1-3.2c-0.7-1-1.9-1.7-3.9-3c-2.4-1.7-3.4-2.4-3.4-4.1s1.3-2.6,2.9-2.6c2.2,0,2.8,0.8,3.3,3.5l1.3-0.2
	c-0.2-1.4-0.4-2.9-0.5-3.9c-1.1-0.4-2.4-0.7-4-0.7c-4.3,0-5.7,2.6-5.7,4.5c0,2.8,1.7,3.9,4.4,5.7c2.4,1.6,3.7,2.5,3.7,4.5
	c0,2.1-1.6,3.2-3.3,3.2c-2,0-3.2-0.8-4-3.9L169.9,131.3z M156.9,128.9l2.4-8.2h0.1l2.6,8.2H156.9z M163.3,133.2
	c0.1,0.4,0.2,0.7,0.2,1c0,0.5-0.3,0.7-1.3,0.7v1h5.8v-1c-0.9,0-1.2-0.3-1.7-1.8l-5.5-16.2h-1.8l-5,16.5c-0.4,1.1-0.7,1.4-1.5,1.4v1
	h4.2v-1c-0.9,0-1.3-0.1-1.3-0.7c0-0.3,0.1-0.7,0.2-1.2l0.8-2.8h5.9L163.3,133.2z M142.8,118.5c1.3,0,2.2,0.3,2.8,0.9
	c0.7,0.7,1,1.6,1,2.8c0,3.2-1.8,4-4.3,4h-1.4v-6.1c0-1.3,0-1.6,0.6-1.6H142.8z M135.9,117.3v1c1.8,0,2,0.2,2,2v12.4
	c0,1.8-0.2,2.1-2,2.1v1h6.9v-1c-1.7,0-1.9-0.2-1.9-2.1v-5.4h1.7l4.5,8.4h4.2v-1c-1,0-1.4-0.2-2.4-1.8l-3.5-6.1
	c2.8-0.5,4.3-2.5,4.3-4.8c0-1.7-0.7-2.9-1.8-3.7c-1.3-0.9-2.8-1.2-5.2-1.2H135.9z M122.8,128.9l2.4-8.2h0.1l2.6,8.2H122.8z
	 M129.3,133.2c0.1,0.4,0.2,0.7,0.2,1c0,0.5-0.3,0.7-1.3,0.7v1h5.8v-1c-0.9,0-1.2-0.3-1.7-1.8l-5.5-16.2h-1.8l-5,16.5
	c-0.4,1.1-0.7,1.4-1.5,1.4v1h4.2v-1c-0.9,0-1.3-0.1-1.3-0.7c0-0.3,0.1-0.7,0.2-1.2l0.8-2.8h5.9L129.3,133.2z M108.8,118.5
	c1.3,0,2.2,0.3,2.8,0.9c0.7,0.7,1,1.6,1,2.8c0,3.2-1.8,4-4.3,4h-1.4v-6.1c0-1.3,0-1.6,0.6-1.6H108.8z M101.8,117.3v1
	c1.8,0,2,0.2,2,2v12.4c0,1.8-0.2,2.1-2,2.1v1h6.9v-1c-1.7,0-1.9-0.2-1.9-2.1v-5.4h1.7l4.5,8.4h4.2v-1c-1,0-1.4-0.2-2.4-1.8l-3.5-6.1
	c2.8-0.5,4.3-2.5,4.3-4.8c0-1.7-0.7-2.9-1.8-3.7c-1.3-0.9-2.8-1.2-5.2-1.2H101.8z M88.8,128.9l2.4-8.2h0.1l2.6,8.2H88.8z
	 M95.2,133.2c0.1,0.4,0.2,0.7,0.2,1c0,0.5-0.3,0.7-1.3,0.7v1h5.8v-1c-0.9,0-1.2-0.3-1.7-1.8l-5.5-16.2H91l-5,16.5
	c-0.4,1.1-0.7,1.4-1.5,1.4v1h4.2v-1c-0.9,0-1.3-0.1-1.3-0.7c0-0.3,0.1-0.7,0.2-1.2l0.8-2.8h5.9L95.2,133.2z M81.6,131.3
	c-0.7,3-0.9,3.3-2.5,3.3h-3.6c-0.6,0-0.8-0.1-0.8-1.2v-13c0-1.9,0.1-2.1,2-2.1v-1h-7.1v1c1.8,0,2,0.2,2,2v12.4c0,1.8-0.2,2.1-2,2.1
	v1H82l0.9-4.5H81.6z M55.8,131.3c0.3,1.2,0.6,2.5,0.7,4.1c1.3,0.4,2.9,0.8,4.4,0.8c4.1,0,6.3-2.4,6.3-5.2c0-1.3-0.4-2.3-1-3.2
	c-0.7-1-1.9-1.7-3.9-3c-2.4-1.7-3.4-2.4-3.4-4.1s1.3-2.6,2.9-2.6c2.2,0,2.8,0.8,3.3,3.5l1.3-0.2c-0.2-1.4-0.4-2.9-0.5-3.9
	c-1.1-0.4-2.4-0.7-4-0.7c-4.3,0-5.7,2.6-5.7,4.5c0,2.8,1.7,3.9,4.4,5.7c2.4,1.6,3.7,2.5,3.7,4.5c0,2.1-1.6,3.2-3.3,3.2
	c-2,0-3.2-0.8-4-3.9L55.8,131.3z M42.6,120.4c0-1.9,0.1-2,1.8-2v-1h-6.6v1c1.7,0,1.8,0.2,1.8,2v9.2c0,3.3,0.6,6.6,6.4,6.6
	c2,0,3.4-0.5,4.4-1.6c1-1.1,1.5-2.7,1.5-4.9v-9.4c0-1.8,0.2-2,1.7-2v-1h-4.9v1c1.6,0,1.8,0.2,1.8,2v9.2c0,1.8-0.2,5.2-3.9,5.2
	c-3.6,0-3.9-3.1-3.9-5.3V120.4z M34.7,131.3c-0.7,3-0.9,3.3-2.5,3.3h-3.6c-0.6,0-0.8-0.1-0.8-1.2v-13c0-1.9,0.1-2.1,2-2.1v-1h-7.1v1
	c1.8,0,2,0.2,2,2v12.4c0,1.8-0.2,2.1-2,2.1v1h12.3l0.9-4.5H34.7z M9.6,120.4c0-1.9,0.1-2,1.8-2v-1H4.7v1c1.7,0,1.8,0.2,1.8,2v9.2
	c0,3.3,0.6,6.6,6.4,6.6c2,0,3.4-0.5,4.4-1.6c1-1.1,1.5-2.7,1.5-4.9v-9.4c0-1.8,0.2-2,1.7-2v-1h-4.9v1c1.6,0,1.8,0.2,1.8,2v9.2
	c0,1.8-0.2,5.2-3.9,5.2c-3.6,0-3.9-3.1-3.9-5.3V120.4z"/>
</svg>
